<svg xmlns="http://www.w3.org/2000/svg" width="1106" height="2400" viewBox="0 0 1106 2400" version="1.1"><path d="M 532.239 2.250 C 527.882 7.667, 520.100 27.663, 514.624 47.515 C 498.109 107.389, 493.047 184.257, 501.016 254.193 C 506.510 302.418, 517.920 347.650, 529.630 367.632 C 533.668 374.522, 534.221 374.589, 537.835 368.624 C 551.125 346.696, 562.813 298.346, 568.685 241 C 571.070 217.707, 571.060 157.118, 568.666 134 C 562.722 76.574, 549.960 25.604, 535.931 3.250 C 534.315 0.675, 533.651 0.495, 532.239 2.250 M 544.471 43 C 544.738 46.025, 545.629 55.700, 546.450 64.500 C 552.009 124.099, 552.299 188.967, 547.473 294 C 545.551 335.846, 545.545 335.686, 548.624 324.500 C 552.420 310.708, 557.733 283.229, 559.951 265.919 C 563.310 239.698, 564.306 218.732, 563.678 187.500 C 562.791 143.402, 558.870 109.902, 548.424 57.158 C 544.574 37.721, 543.739 34.731, 544.471 43 M 807.126 67.264 C 795.072 73.425, 763.826 102.922, 743.845 127 C 697.567 182.770, 660.123 250.237, 638.674 316.500 C 629.222 345.702, 623.236 376.836, 625.410 385.496 C 626.216 388.707, 627.980 388.328, 636 383.217 C 664.946 364.770, 709.645 313.028, 742.455 259.985 C 774.896 207.540, 801.213 143.308, 810.457 94.013 C 812.403 83.634, 813.653 64.995, 812.402 65.014 C 811.906 65.022, 809.532 66.034, 807.126 67.264 M 260 91.401 C 260 95.471, 260.878 103.908, 261.951 110.151 C 271.088 163.287, 302.680 236.860, 341.540 295.500 C 367.086 334.049, 398.235 370.617, 423.624 391.864 C 432.607 399.382, 444.235 407, 446.727 407 C 448.337 407, 448.440 396.379, 446.937 385.322 C 445.505 374.785, 440.003 352.075, 435.473 338 C 414.044 271.420, 378.232 205.848, 333.086 150.528 C 319.854 134.314, 294.433 108.164, 282.526 98.517 C 274.226 91.793, 262.547 84.009, 260.750 84.003 C 260.337 84.001, 260 87.330, 260 91.401 M 514.149 95.837 C 514.067 96.572, 513.326 102.647, 512.502 109.337 C 507.678 148.505, 505.531 212.609, 507.919 246.168 C 510.564 283.339, 517.682 319.812, 525.784 337.708 L 527.500 341.500 528.032 330.500 C 529.085 308.714, 527.262 275.699, 521.021 203.500 C 519 180.124, 516.467 140.862, 515.117 112 C 514.667 102.375, 514.232 95.102, 514.149 95.837 M 794.500 119.682 C 770.575 173.876, 739.677 228.232, 675.594 328.864 C 665.309 345.014, 657.088 358.421, 657.324 358.658 C 657.843 359.176, 677.598 337.859, 688.120 325.426 C 726.105 280.545, 757.756 225.014, 783.272 158.483 C 791.207 137.793, 802.159 105.976, 801.758 104.775 C 801.598 104.294, 798.332 111.002, 794.500 119.682 M 294.668 121 C 332.813 172.680, 365.350 227.885, 421.973 337 C 429.822 352.125, 436.626 364.915, 437.094 365.421 C 438.429 366.870, 434.449 353.223, 427.462 332.396 C 403.950 262.308, 363.716 196.401, 301.456 125.987 C 288.056 110.832, 286.105 109.399, 294.668 121 M 737.870 150.626 C 695.392 207.912, 662.185 267.443, 646.459 314.504 C 641.610 329.015, 635.244 355.577, 636.350 356.683 C 636.842 357.176, 645.125 344.031, 652.219 331.500 C 659.225 319.123, 674.294 288.618, 690.502 254 C 716.017 199.504, 740.617 150.206, 747.763 139.250 C 748.570 138.012, 748.947 137, 748.602 137 C 748.257 137, 743.427 143.132, 737.870 150.626 M 291 176.217 C 291 179.181, 320.187 240.768, 330.492 259.551 C 352.764 300.142, 377.965 336.328, 399.979 359.326 C 411.360 371.215, 423.872 382.461, 424.747 381.586 C 425.715 380.618, 409.141 352.013, 396.585 332.980 C 389.865 322.795, 375.447 301.659, 364.545 286.013 C 335.483 244.305, 317.780 217.970, 304.044 196.010 C 291.755 176.363, 291 175.217, 291 176.217 M 1000.761 260.534 C 980.125 263.347, 945.719 273.317, 917 284.806 C 846.442 313.031, 779.718 356.088, 730.896 404.900 C 714.295 421.497, 705.502 432.096, 700.534 441.499 L 697.893 446.498 701.074 447.149 C 708.919 448.753, 733.243 444.900, 755.639 438.504 C 824.969 418.706, 900.493 378.090, 959.500 328.871 C 990.087 303.358, 1025.184 263.264, 1019.874 259.901 C 1018.048 258.744, 1012.555 258.926, 1000.761 260.534 M 983 295.112 C 967.073 307.182, 929.180 332.197, 904 347.264 C 868.696 368.389, 834.661 387.034, 772.203 419.467 C 754.439 428.691, 740.078 436.411, 740.289 436.623 C 740.885 437.218, 766.075 429.654, 780 424.699 C 847.707 400.607, 910.279 361.826, 978.908 301.420 C 990.062 291.602, 995.035 286.836, 993.872 287.077 C 993.668 287.120, 988.775 290.735, 983 295.112 M 923 292.927 C 856.841 321.113, 799.845 353.968, 760.198 386.775 C 750.078 395.150, 726.012 419.241, 723.986 423.025 C 723.036 424.802, 723.857 424.593, 730 421.500 C 748.724 412.071, 769.922 398.315, 831.500 355.636 C 872.450 327.254, 892.143 314.148, 915.750 299.569 C 923.587 294.728, 930 290.595, 930 290.384 C 930 289.905, 930.643 289.671, 923 292.927 M 67.461 297.750 C 72.644 307.269, 80.761 316.880, 98.940 335.020 C 137.477 373.475, 183.275 406.121, 237 433.433 C 290.406 460.582, 350.108 480, 380.175 480 C 385.029 480, 389 479.760, 389 479.467 C 389 477.529, 383.082 468.005, 376.885 459.972 C 349.267 424.169, 289.015 377.289, 229.391 345.214 C 174.337 315.598, 107.002 293, 73.807 293 L 64.875 293 67.461 297.750 M 114 308.100 C 129.962 315.075, 167.467 333.489, 185.473 343.190 C 223.156 363.493, 256.392 383.474, 326.500 427.974 C 343.550 438.796, 358.175 447.985, 359 448.395 C 361.552 449.661, 342.146 431.259, 329.418 420.342 C 281.028 378.839, 223.714 346.261, 151.939 319.461 C 136.011 313.514, 105.034 302.989, 103.600 303.037 C 102.995 303.057, 107.675 305.336, 114 308.100 M 138 357.381 C 138 358.475, 167.190 379.358, 188.500 393.509 C 234.385 423.979, 271.813 443.686, 309.500 457.217 C 321.904 461.671, 343.724 467.452, 352 468.477 L 357.500 469.158 352.366 465.631 C 336.180 454.509, 310.279 441.086, 255.500 415.429 C 217.841 397.791, 168.431 373.415, 149.250 363.011 C 143.063 359.655, 138 357.121, 138 357.381 M 547.348 394.342 C 546.206 395.529, 545.249 396.900, 545.221 397.388 C 545.193 397.877, 544.782 398.552, 544.308 398.888 C 543.833 399.225, 542.624 401.525, 541.620 404 C 540.616 406.475, 539.366 409.322, 538.841 410.326 C 538.317 411.331, 537.633 414.307, 537.321 416.940 L 536.754 421.727 551.627 421.782 C 560.301 421.814, 569.557 422.438, 573.835 423.280 L 581.169 424.723 580.656 419.612 C 579.475 407.855, 577.903 401.823, 575.219 398.750 C 574.378 397.788, 574.040 397, 574.467 397 C 574.895 397, 574.685 396.325, 574 395.500 C 573.315 394.675, 572.417 394, 572.003 394 C 570.562 394, 563.738 400.894, 561.487 404.623 L 559.220 408.379 556.210 402.440 C 554.555 399.173, 552.351 395.529, 551.313 394.342 L 549.425 392.184 547.348 394.342 M 515.745 397.750 C 514.295 399.372, 511.338 407.197, 510.510 411.602 C 510.314 412.646, 510.119 413.651, 510.077 413.835 C 510.034 414.019, 507.138 411.656, 503.639 408.585 C 500.141 405.513, 496.781 403, 496.174 403 C 493.639 403, 492.591 407.709, 492.614 419 C 492.627 425.325, 492.883 431.400, 493.182 432.500 C 493.795 434.747, 495.778 434.683, 500.452 432.266 C 505.670 429.568, 519.418 425.284, 527.078 423.969 C 531.160 423.269, 534.862 422.380, 535.303 421.994 C 536.282 421.141, 531.695 410.821, 529.543 409.036 C 528.694 408.331, 528 407.231, 528 406.590 C 528 405.444, 518.966 396, 517.871 396 C 517.562 396, 516.606 396.788, 515.745 397.750 M 596.817 404.802 C 594.242 406.836, 591.100 409.850, 589.836 411.500 C 588.571 413.150, 587.191 414.650, 586.768 414.833 C 586.346 415.017, 586 415.804, 586 416.583 C 586 417.363, 585.602 418, 585.117 418 C 584.631 418, 584.007 418.788, 583.730 419.750 C 583.453 420.712, 582.926 422.227, 582.558 423.115 C 582.015 424.426, 583.451 425.218, 590.195 427.324 C 612.525 434.299, 633.473 448.116, 647.927 465.402 L 654.354 473.089 656.641 470.294 C 657.899 468.757, 658.944 466.938, 658.964 466.250 C 658.984 465.563, 659.338 465, 659.752 465 C 660.707 465, 665.985 453.888, 666.489 450.814 C 667.709 443.381, 667.748 443.495, 664 443.568 C 660.057 443.645, 651.944 444.917, 650.771 445.641 C 649.191 446.618, 647.980 444.905, 648.959 443.078 C 649.489 442.087, 650.095 439.709, 650.306 437.793 C 650.517 435.878, 650.988 433.828, 651.352 433.239 C 651.716 432.650, 651.568 430.995, 651.023 429.561 C 650.184 427.355, 649.607 427.052, 647.266 427.590 C 642.224 428.749, 633.578 433.224, 627.789 437.670 L 622.079 442.056 623.546 437.278 C 626.679 427.079, 626.268 410, 622.890 410 C 620.780 410, 615.190 412.901, 612.913 415.178 C 609.555 418.536, 607.023 419.398, 606.915 417.219 C 606.436 407.475, 604.708 400.956, 602.629 401.052 C 602.008 401.081, 599.393 402.768, 596.817 404.802 M 465.617 418.811 C 465.341 419.258, 465.282 423.494, 465.486 428.225 L 465.857 436.827 460.557 434.483 C 457.642 433.194, 453.624 431.832, 451.628 431.458 L 448 430.777 448 435.420 C 448 442.635, 453.720 457.683, 457.418 460.196 C 457.981 460.578, 458.201 461.132, 457.907 461.427 C 457.612 461.721, 454.196 460.628, 450.314 458.997 C 445.222 456.857, 440.822 455.844, 434.514 455.359 L 425.772 454.687 426.477 458.094 C 426.865 459.967, 428.273 463.931, 429.605 466.902 C 430.938 469.874, 431.784 472.550, 431.484 472.849 C 431.184 473.149, 428.140 473.448, 424.720 473.515 C 413.512 473.733, 413.702 473.675, 414.449 476.654 C 415.844 482.213, 430.085 499, 433.405 499 C 434.258 499, 436.235 496.199, 438.018 492.462 C 448.582 470.328, 467.900 450.105, 491.574 436.399 C 493.321 435.387, 492.985 434.815, 487.466 429.399 C 479.494 421.575, 467.501 415.763, 465.617 418.811 M 669.659 468.674 C 669.294 469.039, 667.454 469.497, 665.570 469.690 C 662.146 470.041, 655 472.613, 655 473.494 C 655 473.751, 656.514 476.332, 658.365 479.231 C 664.176 488.331, 668.957 498.602, 673.519 511.785 C 673.866 512.787, 674.677 512.701, 677.203 511.395 C 681.118 509.370, 691.883 499.286, 693.104 496.500 C 693.586 495.400, 694.714 493.487, 695.612 492.250 C 697.198 490.063, 697.143 489.958, 693.642 488.495 C 691.662 487.667, 687.444 486.796, 684.270 486.559 C 681.097 486.323, 678.362 486.100, 678.193 486.064 C 677.548 485.929, 681.563 479.460, 682.771 478.689 C 683.470 478.242, 683.781 477.455, 683.462 476.939 C 683.143 476.422, 683.304 476, 683.820 476 C 685.005 476, 687.483 470.149, 686.650 469.317 C 685.779 468.445, 670.467 467.866, 669.659 468.674 M 875.500 498.095 C 822.804 501.988, 768.399 513.714, 742.444 526.774 C 732.074 531.991, 731.085 533.135, 734.570 535.876 C 743.194 542.660, 774.007 553.157, 802.500 559.016 C 839.474 566.621, 875.432 570.062, 917.957 570.068 C 964.206 570.074, 1004.481 565.706, 1044 556.400 C 1066.253 551.160, 1090.479 542.594, 1099.971 536.609 L 1105.381 533.198 1100.492 530.097 C 1094.960 526.589, 1079.652 520.428, 1067 516.618 C 1037.302 507.675, 996.781 500.715, 958.813 498.036 C 942.016 496.851, 891.854 496.886, 875.500 498.095 M 417.500 499.978 C 416.400 500.388, 414.932 500.510, 414.237 500.250 C 413.543 499.989, 412.376 500.273, 411.645 500.879 C 410.914 501.486, 410.062 501.728, 409.751 501.418 C 409.292 500.959, 403.531 503.347, 402.136 504.575 C 401.398 505.224, 406.026 511.702, 409.459 514.827 C 411.407 516.599, 413 518.431, 413 518.899 C 413 519.367, 411.538 520.089, 409.750 520.502 C 407.962 520.916, 405.995 521.374, 405.377 521.520 C 402.835 522.121, 397 525.287, 397 526.066 C 397 528.481, 411.560 539.715, 415.718 540.507 C 416.698 540.694, 417.613 540.938, 417.750 541.048 C 417.887 541.159, 418.450 541.362, 419 541.500 C 419.550 541.638, 420.113 541.840, 420.250 541.949 C 420.387 542.059, 421.481 542.333, 422.680 542.557 C 424.661 542.929, 424.917 542.441, 425.485 537.233 C 426.495 527.955, 428.848 516.724, 431.432 508.849 C 432.922 504.310, 433.489 501.135, 432.916 500.545 C 431.781 499.374, 420.259 498.951, 417.500 499.978 M 868 506.690 C 834.422 508.261, 799.921 514.193, 774.515 522.765 C 763.577 526.455, 763.547 526.474, 767.515 527.178 C 779.473 529.299, 812.994 527.874, 878 522.479 C 944.046 516.998, 959.013 515.990, 984.289 515.316 C 997.374 514.967, 1008.264 514.382, 1008.491 514.015 C 1009.252 512.783, 967.820 508.674, 938 507.025 C 921.222 506.096, 884.438 505.920, 868 506.690 M 675.326 513.746 C 674.435 514.337, 674.491 515.967, 675.557 520.512 C 680.597 541.983, 679.493 563.087, 671.922 590 C 671.569 591.255, 672.969 591.495, 680.500 591.467 C 685.450 591.450, 690.625 591.150, 692 590.802 C 698.645 589.121, 702.502 587.349, 702.791 585.845 C 703.109 584.193, 696.648 576.888, 692.097 573.752 L 689.693 572.097 692.097 571.157 C 703.041 566.879, 706.396 565.313, 706.723 564.331 C 707.212 562.864, 700.805 556.640, 696.820 554.710 C 693.930 553.310, 693.871 553.176, 695.870 552.541 C 697.041 552.170, 698 551.446, 698 550.933 C 698 550.420, 698.800 550, 699.777 550 C 700.755 550, 703.042 548.641, 704.861 546.980 L 708.168 543.959 705.223 541.230 C 703.603 539.728, 699.965 537.694, 697.139 536.709 C 694.312 535.724, 692 534.517, 692 534.027 C 692 533.537, 693.462 532.111, 695.250 530.859 C 697.038 529.606, 700.300 526.873, 702.500 524.784 C 706.338 521.140, 706.409 520.962, 704.250 520.377 C 703.013 520.041, 702 519.406, 702 518.966 C 702 516.261, 678.478 511.658, 675.326 513.746 M 163.500 535.039 C 114.150 537.097, 66.381 545.285, 29.648 557.981 C 18.330 561.893, 6.717 567.171, 2.566 570.289 C 0.721 571.675, 0.837 571.872, 5.066 574.551 C 23.761 586.391, 75.760 599.571, 125 604.950 C 153.461 608.059, 198.413 608.953, 227 606.979 C 283.614 603.069, 336.667 591.768, 364.714 577.644 C 373.366 573.287, 375.048 571.505, 372.398 569.502 C 360.711 560.667, 322.120 548.697, 285.500 542.548 C 247.356 536.143, 202.793 533.400, 163.500 535.039 M 176.500 541.674 C 148.005 543.081, 119.701 546.173, 90.057 551.118 C 68.807 554.662, 38.965 560.686, 38.094 561.606 C 37.767 561.951, 38.850 561.971, 40.500 561.649 C 44.659 560.839, 71.563 558.256, 89 556.993 C 119.422 554.790, 169.838 553.953, 209.986 554.986 C 247.847 555.959, 312.937 558.421, 327.368 559.425 C 331.146 559.688, 333.999 559.666, 333.709 559.375 C 332.349 558.015, 302.610 551.267, 284 548.096 C 251.550 542.566, 209.418 540.049, 176.500 541.674 M 1058 544.103 C 1046.754 545.573, 1018.241 547.935, 998.500 549.032 C 974.334 550.375, 895.424 550.376, 861.500 549.034 C 803.954 546.757, 786.187 545.987, 779.522 545.477 C 754.238 543.544, 813.970 556.601, 848.131 560.474 C 908.341 567.300, 974.507 563.020, 1050.383 547.392 C 1071.339 543.076, 1073.717 542.049, 1058 544.103 M 415.500 546.205 C 407.463 549.048, 396 556.089, 396 558.183 C 396 559.462, 400.262 562.956, 401.151 562.406 C 401.618 562.118, 402 562.328, 402 562.874 C 402 563.797, 404.494 565.007, 406.286 564.952 C 406.718 564.939, 407.762 565.620, 408.607 566.464 C 409.452 567.309, 410.818 568, 411.643 568 C 413.484 568, 412.260 569.327, 407.014 573.019 C 402.711 576.047, 400.392 578.327, 399.787 580.125 C 398.669 583.446, 411.950 587.776, 423.323 587.799 C 427.075 587.806, 430.374 588.041, 430.654 588.321 C 430.934 588.600, 429.603 589.569, 427.697 590.474 C 421.042 593.632, 407.499 609.899, 409.697 612.097 C 410.900 613.300, 414.004 614.056, 421.199 614.897 C 424.333 615.264, 427.194 615.861, 427.558 616.224 C 428.115 616.782, 424.838 622.408, 423.028 624 C 422.074 624.839, 420 630.004, 420 631.540 C 420 632.716, 421.536 632.911, 428.250 632.583 C 440.362 631.993, 443.396 631.296, 451.181 627.316 C 451.555 627.124, 452.187 627.494, 452.585 628.138 C 453.037 628.869, 452.876 629.041, 452.155 628.595 C 451.491 628.186, 451 628.479, 451 629.286 C 451 630.058, 450.048 631.547, 448.885 632.595 C 446.901 634.382, 445.283 637.369, 445.205 639.388 C 445.186 639.877, 444.756 640.552, 444.249 640.888 C 442.959 641.745, 440.909 648.043, 441.571 649.115 C 441.872 649.602, 441.614 650, 440.999 650 C 440.317 650, 440.001 651.465, 440.190 653.750 C 440.487 657.341, 440.648 657.494, 444 657.359 C 448.225 657.190, 451.197 656.500, 453.869 655.070 C 454.969 654.481, 456.847 654, 458.043 654 C 459.910 654, 460.120 654.384, 459.533 656.725 C 457.926 663.126, 456.939 670.093, 457.509 671.014 C 458.394 672.446, 462.563 671.230, 470 667.371 C 476.701 663.893, 484.404 657.617, 483.827 656.103 C 483.647 655.632, 479.840 652.496, 475.366 649.136 C 458.986 636.832, 444.309 618.329, 436.124 599.665 C 429.452 584.453, 425 564.285, 425 549.276 C 425 543.082, 424.650 542.969, 415.500 546.205 M 282.500 578.132 C 275.350 578.596, 250.600 580.548, 227.500 582.470 C 160.924 588.008, 146.093 589, 119.663 589.682 C 106.002 590.034, 95.427 590.640, 96.163 591.028 C 97.761 591.871, 120.099 594.349, 147 596.668 C 174.611 599.049, 237.283 599.045, 259.500 596.662 C 289.669 593.425, 309.823 589.428, 329.973 582.684 C 340.756 579.076, 342.043 578.424, 339.473 577.873 C 335.226 576.964, 297.875 577.133, 282.500 578.132 M 669.924 594.699 C 667.472 601.149, 660.352 614.132, 655.320 621.328 C 652.309 625.633, 650.086 629.782, 650.380 630.548 C 650.674 631.314, 652.171 632.241, 653.707 632.608 C 655.243 632.975, 657.043 633.702, 657.706 634.224 C 658.370 634.745, 659.351 634.901, 659.887 634.570 C 660.423 634.238, 661.163 634.455, 661.532 635.052 C 661.901 635.648, 662.817 635.900, 663.569 635.612 C 664.321 635.323, 665.179 635.481, 665.477 635.962 C 666.013 636.830, 677.464 637.101, 679.631 636.297 C 680.949 635.808, 680.046 630.790, 677.954 626.976 C 677.207 625.614, 676.496 623.898, 676.374 623.162 C 676.251 622.427, 675.372 620.964, 674.421 619.912 C 672.730 618.044, 672.877 618, 680.763 618 C 685.203 618, 689.548 617.727, 690.418 617.393 C 692.597 616.557, 692.402 613.325, 690.051 611.312 C 688.979 610.394, 688.311 609.305, 688.567 608.892 C 689.210 607.851, 676.963 595, 675.327 595 C 674.597 595, 674 594.598, 674 594.107 C 674 593.616, 673.311 592.949, 672.468 592.626 C 671.435 592.230, 670.607 592.904, 669.924 594.699 M 717.009 625.750 C 717.028 627.246, 723.036 636.942, 728.048 643.564 C 742.631 662.831, 770.307 688.606, 801.378 711.857 C 855.622 752.450, 922.386 786.117, 982.114 802.998 C 1001.729 808.541, 1015.603 811.107, 1029.390 811.740 L 1041.281 812.286 1038.617 807.393 C 1027.597 787.152, 993.352 753.474, 953.500 723.687 C 890.334 676.472, 805.460 637.183, 743.619 626.530 C 734.418 624.945, 716.993 624.434, 717.009 625.750 M 639.885 639.371 C 635.147 643.842, 627.947 649.750, 623.885 652.500 C 619.823 655.250, 616.184 657.942, 615.797 658.483 C 615.014 659.578, 624.712 669, 626.622 669 C 627.288 669, 627.989 669.467, 628.179 670.038 C 628.370 670.609, 631.511 672.160, 635.160 673.484 C 641.736 675.871, 641.800 675.875, 642.324 673.868 C 642.615 672.754, 642.706 668.279, 642.525 663.922 C 642.345 659.565, 642.320 656, 642.471 656 C 642.622 656, 644.802 656.910, 647.315 658.021 C 649.829 659.133, 653.711 660.298, 655.943 660.610 C 659.758 661.144, 660 661.028, 660 658.670 C 660 654.684, 656.936 643.661, 655.321 641.838 C 654.511 640.923, 653.748 639.492, 653.626 638.656 C 653.503 637.820, 652.300 635.810, 650.951 634.189 L 648.500 631.242 639.885 639.371 M 753.720 639.497 C 770.397 650.728, 799.461 665.630, 860 693.990 C 889.059 707.603, 946.914 736.011, 949.500 737.936 C 951.502 739.426, 968 748.092, 968 747.653 C 968 746.359, 928.518 718.072, 910.500 706.457 C 855.343 670.903, 801.489 645.887, 763.308 638.083 C 748.588 635.075, 747.410 635.248, 753.720 639.497 M 754.500 664.538 C 804.779 712.712, 862.877 749.206, 935.500 778.231 C 959.455 787.805, 1001.703 802.630, 1002.568 801.765 C 1002.728 801.606, 996.253 798.577, 988.179 795.034 C 980.106 791.492, 962.475 783.080, 949 776.342 C 901.068 752.374, 859.958 728.205, 775.078 674.093 C 761.096 665.179, 748.721 657.443, 747.578 656.901 C 746.435 656.359, 749.550 659.796, 754.500 664.538 M 393 657.639 C 391.625 657.841, 387.125 658.484, 383 659.068 C 344.227 664.559, 279.863 689.538, 228.537 719.013 C 186.447 743.185, 150.685 770.231, 118.889 801.938 C 96.584 824.182, 82.554 842.722, 86.160 845.187 C 89.158 847.236, 112.176 843.974, 133.988 838.408 C 204.447 820.431, 287.610 776.324, 349.500 724.108 C 372.835 704.421, 398.875 676.300, 405.289 663.863 L 408.054 658.500 405.777 657.850 C 403.324 657.149, 397.043 657.046, 393 657.639 M 484.879 663.250 C 483.434 668.999, 483.116 680.907, 484.293 685.250 C 485.346 689.138, 487.338 688.729, 495.168 683.016 C 498.926 680.274, 502.016 678.137, 502.035 678.266 C 503.316 686.874, 505.223 694.652, 506.323 695.752 C 507.570 696.998, 508.541 696.420, 513.722 691.343 C 519.276 685.901, 525.969 676.055, 525.991 673.295 C 525.996 672.633, 524.313 671.783, 522.250 671.407 C 516.538 670.366, 502.299 665.172, 494.775 661.385 C 491.076 659.523, 487.634 658, 487.125 658 C 486.616 658, 485.605 660.362, 484.879 663.250 M 604 663.670 C 585.483 671.957, 564.204 675.876, 545 674.538 C 526.714 673.264, 528.458 672.999, 528.796 677 C 529.471 684.993, 532.341 695.146, 535.200 699.654 L 538.225 704.424 542.168 699.962 C 544.336 697.508, 546.812 694.038, 547.669 692.250 C 548.527 690.462, 549.550 689, 549.943 689 C 550.336 689, 551.748 691.330, 553.079 694.178 C 555.740 699.870, 558.660 704, 560.025 704 C 561.207 704, 566.911 695.626, 567.293 693.328 C 567.461 692.323, 568.121 690.549, 568.760 689.388 C 570.143 686.875, 571.016 682.762, 571.901 674.583 C 572.042 673.282, 573.349 674.769, 573.606 676.523 C 574.402 681.943, 587.985 698, 591.774 698 C 594.012 698, 596.366 693.214, 597.434 686.491 C 597.780 684.316, 598.402 682.198, 598.818 681.782 C 599.233 681.367, 601.758 683.033, 604.428 685.485 C 607.099 687.937, 609.670 689.704, 610.142 689.412 C 610.614 689.121, 611 689.359, 611 689.941 C 611 691.448, 614.986 691.261, 615.069 689.750 C 615.107 689.063, 615.389 687.150, 615.696 685.500 C 616.382 681.810, 616.439 668.231, 615.779 665.500 C 614.209 659, 614.377 659.026, 604 663.670 M 357.500 670.104 C 289.281 689.227, 223.550 724.582, 158 777.408 C 135.383 795.636, 103.513 824.064, 116 814.873 C 174.889 771.527, 227.896 740.145, 340.500 681.960 C 369.383 667.036, 370.013 666.597, 357.500 670.104 M 371.071 686.118 C 354.453 694.973, 334.547 707.680, 302.657 729.793 C 226.904 782.322, 219.419 787.354, 190.555 805.162 C 181.785 810.573, 174.903 815, 175.262 815 C 176.872 815, 208.419 800.850, 227.500 791.570 C 272.151 769.853, 309.795 746.894, 340.297 722.775 C 354.002 711.938, 385.887 679.873, 382.818 680.015 C 382.643 680.023, 377.357 682.769, 371.071 686.118 M 658 705.007 C 658 749.532, 694.138 840.314, 738.804 907.992 C 770.671 956.278, 815.858 1005.329, 840.623 1018.519 L 845.500 1021.116 845.801 1014.340 C 846.180 1005.788, 843.779 990.235, 839.497 973.500 C 820.491 899.238, 776.734 817.063, 722.159 753.146 C 709.852 738.733, 686.017 715.359, 676 707.881 C 668.654 702.397, 661.107 698, 659.040 698 C 658.419 698, 658 700.823, 658 705.007 M 474.485 719.119 C 446.502 733.995, 398.578 788.379, 363.545 845.015 C 331.135 897.408, 304.783 961.704, 295.564 1010.878 C 293.542 1021.664, 292.416 1038.521, 293.666 1039.294 C 298.499 1042.281, 336.005 1009.095, 360.113 980.500 C 406.611 925.349, 445.672 855.397, 467.326 788.500 C 476.750 759.384, 482.764 728.164, 480.605 719.561 C 479.826 716.460, 479.528 716.438, 474.485 719.119 M 681 723.613 C 681 724.763, 689.946 740.846, 697.345 753 C 706.701 768.367, 719.601 787.590, 743.984 822.500 C 768.834 858.077, 794.929 897.136, 806.018 915.350 C 810.590 922.859, 814.482 928.852, 814.667 928.667 C 814.852 928.482, 812.701 922.968, 809.887 916.415 C 779.729 846.187, 741.506 782.994, 707.323 746.851 C 694.090 732.860, 681 721.304, 681 723.613 M 569.349 734.257 C 558.532 750.568, 547.345 789.624, 541.066 833 C 529.091 915.722, 535.751 1009.693, 558.216 1075 C 562.713 1088.072, 570.689 1104.259, 572.373 1103.731 C 573.962 1103.232, 579.385 1092.953, 583.046 1083.500 C 593.979 1055.273, 602.439 1013.230, 607.193 963.500 C 609.071 943.848, 608.745 887.585, 606.624 865.500 C 602.018 817.543, 593.354 776.587, 581.948 748.856 C 578.954 741.576, 573.079 730.994, 572.039 731.007 C 571.742 731.011, 570.532 732.473, 569.349 734.257 M 670.637 747.642 C 684.347 797.169, 709.035 849.833, 740.653 897 C 757.205 921.692, 778.418 949.036, 801.655 975.635 C 817.980 994.322, 819.952 995.794, 809.512 981.500 C 795.396 962.172, 772.524 927.303, 757.364 902 C 737.189 868.325, 722.046 840.696, 688.033 775.500 C 677.990 756.250, 669.415 740.114, 668.979 739.642 C 668.542 739.171, 669.288 742.771, 670.637 747.642 M 438.214 756.705 C 387.974 810.787, 352.749 868.446, 323.486 944.500 C 315.897 964.224, 303.856 999.067, 304.235 1000.206 C 304.400 1000.700, 306.953 995.568, 309.908 988.802 C 318.506 969.116, 337.963 930.241, 350.601 907.500 C 370.325 872.005, 390.424 838.921, 430.406 776.136 C 440.691 759.986, 448.911 746.578, 448.674 746.341 C 448.437 746.103, 443.730 750.767, 438.214 756.705 M 463.756 756.684 C 450.959 777.399, 439.176 800.428, 415.498 851 C 389.983 905.496, 365.383 954.794, 358.237 965.750 C 357.430 966.987, 357.053 968, 357.398 968 C 358.499 968, 377.970 941.178, 391.565 920.935 C 432.046 860.657, 458.814 804.494, 467.493 761.629 C 468.926 754.553, 469.896 748.563, 469.650 748.317 C 469.404 748.070, 466.751 751.836, 463.756 756.684 M 577.858 774.550 C 577.483 803.633, 578.741 828.846, 583.023 878 C 586.877 922.249, 588.935 951.943, 590.143 980.732 C 590.817 996.810, 591.470 1009.860, 591.594 1009.732 C 592.007 1009.307, 594.953 983.735, 596.576 966.500 C 598.736 943.561, 599.625 879.221, 598.079 857.780 C 596.589 837.121, 593.803 817.292, 589.910 799.635 C 586.938 786.157, 580.769 766.469, 578.917 764.550 C 578.359 763.972, 577.945 767.883, 577.858 774.550 M 556.185 785.167 C 546.335 825.464, 542.003 862.400, 542.014 906 C 542.022 938.373, 544.712 971.787, 550.063 1006 C 552.867 1023.930, 561.156 1066.178, 561.752 1065.581 C 562.030 1065.304, 561.749 1060.897, 561.129 1055.788 C 553.991 996.968, 553.297 930.263, 558.573 810.249 C 559.449 790.311, 560.004 773.511, 559.805 772.916 C 559.607 772.321, 557.978 777.834, 556.185 785.167" stroke="none" fill="#ffffff" fill-rule="evenodd"/><path d="M 535.596 422.737 C 535.391 422.942, 531.235 423.937, 526.361 424.947 C 465.834 437.493, 423.302 492.346, 426.296 554 C 427.186 572.345, 430.669 585.966, 438.825 603 C 442.841 611.388, 443.413 612.149, 443.711 609.500 C 444.395 603.415, 445.124 601.895, 448.277 599.973 C 453.277 596.924, 457.586 597.386, 461.600 601.400 C 464.027 603.827, 465 605.701, 465 607.950 C 465 611.809, 462.643 616.586, 460.055 617.970 C 457.146 619.527, 450.737 619.205, 448.118 617.370 C 445.905 615.820, 445.841 615.832, 446.815 617.620 C 450.986 625.276, 474.870 650, 478.094 650 C 478.565 650, 478.523 648.875, 478 647.500 C 476.453 643.431, 479.370 638.417, 484.306 636.662 C 486.733 635.799, 492.579 638.345, 493.920 640.850 C 496.701 646.046, 493.281 652.582, 487.121 653.841 C 483.777 654.525, 483.783 654.531, 492.637 659.171 C 503.155 664.684, 515.305 669.078, 527 671.599 C 538.781 674.139, 565.122 674.161, 576.796 671.641 C 616.484 663.072, 646.496 639.686, 664.941 602.956 C 668.243 596.380, 670.787 591, 670.595 591 C 670.402 591, 668.523 591.719, 666.420 592.598 C 658.516 595.901, 650 590.054, 650 581.323 C 650 577.512, 650.536 576.264, 653.400 573.400 C 656.186 570.614, 657.557 570, 660.996 570 C 666.100 570, 670.468 572.416, 672.336 576.274 C 674.138 579.994, 674.476 579.078, 676.591 564.763 C 678.464 552.079, 678.075 537.154, 675.551 524.848 C 674.722 520.807, 673.876 516.600, 673.672 515.500 C 673.468 514.400, 673.025 512.825, 672.688 512 C 672.350 511.175, 670.993 507.569, 669.671 503.987 C 663.848 488.205, 655.278 474.548, 643.302 461.963 C 624.531 442.238, 601.903 429.682, 575.582 424.388 C 568.419 422.946, 536.696 421.637, 535.596 422.737 M 514.200 430.200 C 512.542 431.858, 512.696 435.503, 514.487 436.989 C 516.490 438.652, 520.715 437.473, 521.489 435.035 C 522.898 430.594, 517.432 426.968, 514.200 430.200 M 558.930 432.584 C 557.151 434.728, 558.943 437.500, 562.109 437.500 C 563.868 437.500, 564.589 436.869, 564.837 435.113 C 565.372 431.335, 561.384 429.628, 558.930 432.584 M 579.933 437.266 C 572.913 441.997, 572.306 451.723, 578.656 457.712 C 581.576 460.466, 582.902 460.999, 586.821 460.996 C 592.729 460.992, 597.640 458.106, 599.560 453.510 C 601.426 449.044, 601.376 446.595, 599.330 442.283 C 595.970 435.203, 586.594 432.778, 579.933 437.266 M 543.455 442.455 C 538.278 447.631, 541.994 457, 549.223 457 C 553.011 457, 558 452.168, 558 448.500 C 558 446.900, 556.839 444.685, 555.077 442.923 C 551.347 439.193, 546.895 439.014, 543.455 442.455 M 507.400 451.436 C 500.250 454.530, 501.859 465.097, 509.710 466.614 C 512.396 467.133, 513.416 466.738, 515.960 464.194 C 519.600 460.554, 519.861 457.059, 516.750 453.637 C 513.810 450.402, 511.206 449.789, 507.400 451.436 M 622.747 454.984 C 619.431 457.593, 618.576 461.280, 620.448 464.900 C 624.697 473.116, 637.636 468.365, 635.389 459.415 C 634.627 456.378, 630.472 453, 627.500 453 C 626.273 453, 624.135 453.893, 622.747 454.984 M 478.357 460.992 C 475.552 462.124, 473 465.843, 473 468.799 C 473 472.014, 478.169 477, 481.500 477 C 484.407 477, 490 472.158, 490 469.642 C 490 466.403, 487.953 463.027, 485.093 461.548 C 481.730 459.809, 481.362 459.779, 478.357 460.992 M 602.455 466.455 C 599.456 469.453, 599.351 471.905, 602.073 475.365 C 603.576 477.276, 605.067 478, 607.500 478 C 611.171 478, 615 474.334, 615 470.820 C 615 468.065, 610.530 464, 607.500 464 C 606.075 464, 603.805 465.105, 602.455 466.455 M 548.250 466.491 C 546.462 467.268, 545 468.375, 545 468.952 C 545 469.528, 543.961 470, 542.690 470 C 538.389 470, 523.531 474.232, 518 477.033 C 514.975 478.565, 510.543 481.144, 508.150 482.764 L 503.800 485.709 501.446 483.355 C 498.615 480.524, 496.863 480.389, 494.655 482.829 C 492.450 485.265, 492.558 488.707, 494.884 490.159 C 496.639 491.256, 496.396 491.784, 491.318 497.918 C 482.544 508.515, 474 527.918, 474 537.245 C 474 540.034, 473.942 540.061, 469.250 539.450 C 463.051 538.642, 458.158 541.678, 456.088 547.616 C 454.806 551.295, 454.852 552.027, 456.588 555.584 C 459.304 561.148, 464.517 563.809, 469.890 562.375 C 473.833 561.323, 473.919 561.356, 474.538 564.173 C 475.043 566.473, 474.555 567.743, 472.084 570.557 C 469.522 573.475, 469 574.912, 469 579.049 C 469 583.300, 469.489 584.563, 472.335 587.669 C 475.217 590.813, 476.409 591.369, 481.100 591.758 C 486.025 592.167, 486.783 592.562, 489.265 596.014 C 490.769 598.107, 492 600.760, 492 601.910 C 492 604.686, 495.431 608, 498.306 608 C 499.574 608, 502.025 609.043, 503.753 610.318 L 506.895 612.636 503.391 613.903 C 499.184 615.424, 496.378 620.385, 497.406 624.481 C 499.309 632.064, 507.699 634.455, 513.180 628.974 C 515.742 626.412, 516.147 625.336, 515.824 621.952 C 515.586 619.455, 515.829 618.130, 516.471 618.419 C 517.037 618.673, 520.021 619.937, 523.103 621.228 C 526.184 622.518, 530.156 624.795, 531.929 626.287 C 534.358 628.331, 536.230 629, 539.518 629 C 541.918 629, 544.119 628.617, 544.408 628.149 C 544.697 627.681, 549.111 627.043, 554.217 626.731 C 559.323 626.419, 566.875 625.402, 571 624.470 C 585.385 621.220, 603.697 609.650, 612.919 597.983 L 616.872 592.982 617.186 596.142 C 618.030 604.633, 629.508 604.792, 631.629 596.343 C 632.678 592.162, 629.171 588.500, 624.118 588.500 C 621.716 588.500, 620.168 588.080, 620.435 587.500 C 620.688 586.950, 622.601 582.563, 624.687 577.750 C 627.482 571.302, 628.963 569, 630.317 569 C 631.327 569, 633.469 567.685, 635.077 566.077 C 639.292 561.862, 639.131 556.931, 634.632 552.432 C 631.656 549.456, 631.183 548.240, 630.565 541.964 C 630.180 538.058, 629.011 531.600, 627.966 527.612 C 626.808 523.188, 626.299 518.934, 626.661 516.700 C 627.388 512.221, 625.131 508.290, 621.006 506.852 C 617.332 505.571, 616.736 503.837, 618.651 499.999 C 619.950 497.394, 619.994 496.401, 618.927 493.824 C 617.293 489.878, 612.240 487.578, 608.407 489.035 C 606.330 489.825, 605.240 489.704, 603.609 488.501 C 590.260 478.649, 578.588 473.074, 566.750 470.896 C 563.038 470.213, 560 469.259, 560 468.776 C 560 467.927, 553.871 464.960, 552.282 465.039 C 551.852 465.061, 550.038 465.714, 548.250 466.491 M 640 478 C 635.672 482.328, 638.868 490, 645 490 C 648.849 490, 652 486.849, 652 483 C 652 479.151, 648.849 476, 645 476 C 643.333 476, 641.111 476.889, 640 478 M 460.270 479.483 C 453.811 482.290, 450.988 491.785, 454.728 498.117 C 456.374 500.903, 463.083 505, 466 505 C 468.917 505, 475.626 500.903, 477.272 498.117 C 481.075 491.678, 478.157 482.217, 471.510 479.440 C 467.249 477.660, 464.439 477.670, 460.270 479.483 M 625.923 493.923 C 620.064 499.782, 623.282 508.557, 631.703 509.687 C 635.427 510.186, 636.250 509.904, 638.952 507.202 C 643.115 503.039, 643.163 498.009, 639.077 493.923 C 636.913 491.759, 635.205 491, 632.500 491 C 629.795 491, 628.087 491.759, 625.923 493.923 M 650.923 502.923 C 647.193 506.653, 647.014 511.105, 650.455 514.545 C 655.643 519.733, 665 516.146, 665 508.969 C 665 504.987, 660.274 500, 656.500 500 C 654.900 500, 652.685 501.161, 650.923 502.923 M 439.174 505.314 C 437.978 506.587, 437 508.633, 437 509.860 C 437 512.591, 441.211 517, 443.820 517 C 447.107 517, 451 513.165, 451 509.927 C 451 503.672, 443.475 500.737, 439.174 505.314 M 459.110 514.346 C 453.480 517.584, 452.439 524.593, 456.923 529.077 C 465.350 537.504, 478.560 525.510, 470.750 516.522 C 468.048 513.412, 462.529 512.380, 459.110 514.346 M 636.127 526.096 C 631.081 530.798, 631.090 537.215, 636.150 541.473 C 640.589 545.208, 645.298 544.902, 649.600 540.600 C 653.380 536.820, 653.897 533.636, 651.490 528.980 C 649.588 525.302, 647.173 524, 642.254 524 C 639.700 524, 637.609 524.715, 636.127 526.096 M 659.629 525.858 C 657.047 528.710, 657.831 533.805, 661.242 536.340 C 663.862 538.288, 664.138 538.304, 667.466 536.718 C 671.949 534.580, 673.041 530.876, 670.281 527.163 C 667.708 523.702, 662.191 523.026, 659.629 525.858 M 441.025 533.821 C 437.470 537.377, 437.232 539.754, 440.073 543.365 C 441.591 545.296, 443.061 546, 445.573 546 C 454.648 546, 455.676 533.547, 446.775 531.441 C 444.591 530.924, 443.450 531.396, 441.025 533.821 M 659.441 545.441 C 657.887 546.596, 657.721 547.243, 658.609 548.691 C 660.069 551.073, 664.361 551.080, 664.819 548.702 C 665.157 546.945, 663.435 544, 662.069 544 C 661.691 544, 660.509 544.649, 659.441 545.441 M 644.073 555.635 C 641.351 559.095, 641.456 561.547, 644.455 564.545 C 650.757 570.848, 660.476 562.689, 654.984 555.707 C 652.061 551.991, 646.966 551.957, 644.073 555.635 M 438.046 558.444 C 435.345 561.699, 439.815 565.614, 442.811 562.618 C 444.084 561.344, 444.215 560.563, 443.376 559.231 C 441.916 556.913, 439.601 556.571, 438.046 558.444 M 443.937 576.765 C 441.277 579.142, 440.600 580.508, 440.600 583.500 C 440.600 586.492, 441.277 587.858, 443.937 590.235 C 446.747 592.745, 447.846 593.126, 450.887 592.642 C 453.007 592.305, 455.430 590.998, 456.750 589.478 C 461.518 583.990, 458.236 575.527, 450.887 574.358 C 447.846 573.874, 446.747 574.255, 443.937 576.765 M 640.362 580.500 C 639.464 582.839, 640.731 585, 643 585 C 645.544 585, 646.651 582.489, 644.989 580.487 C 643.402 578.574, 641.098 578.580, 640.362 580.500 M 475.163 599.878 C 473.058 601.212, 474.143 605.449, 476.682 605.811 C 479.740 606.246, 481.583 602.726, 479.427 600.569 C 477.642 598.784, 477.042 598.687, 475.163 599.878 M 641 601.709 C 636.058 603.527, 633.953 609.075, 636.406 613.819 C 641.219 623.126, 655.984 616.617, 651.980 606.953 C 650.173 602.590, 645.141 600.187, 641 601.709 M 618.455 613.455 C 616.907 615.002, 616 617.052, 616 619 C 616 620.948, 616.907 622.998, 618.455 624.545 C 620.002 626.093, 622.052 627, 624 627 C 625.948 627, 627.998 626.093, 629.545 624.545 C 631.093 622.998, 632 620.948, 632 619 C 632 617.052, 631.093 615.002, 629.545 613.455 C 627.998 611.907, 625.948 611, 624 611 C 622.052 611, 620.002 611.907, 618.455 613.455 M 604.309 613.636 C 603.547 615.624, 605.138 618.386, 607.290 618.810 C 609.548 619.255, 611.500 615.307, 609.947 613.436 C 608.341 611.501, 605.084 611.616, 604.309 613.636 M 469.923 616.923 C 467.759 619.087, 467 620.795, 467 623.500 C 467 628.581, 471.419 633, 476.500 633 C 479.205 633, 480.913 632.241, 483.077 630.077 C 485.241 627.913, 486 626.205, 486 623.500 C 486 618.419, 481.581 614, 476.500 614 C 473.795 614, 472.087 614.759, 469.923 616.923 M 592.923 628.923 C 591.315 630.531, 590 632.815, 590 634 C 590 637.029, 595.263 642, 598.469 642 C 602.098 642, 606 637.855, 606 634 C 606 630.145, 602.098 626, 598.469 626 C 596.903 626, 594.668 627.179, 592.923 628.923 M 612.359 638.550 C 609.400 641.509, 609.713 645.339, 613.153 648.250 C 617.584 651.999, 624 648.893, 624 643 C 624 636.545, 617.029 633.880, 612.359 638.550 M 532.046 639.444 C 529.345 642.699, 533.815 646.614, 536.811 643.618 C 538.084 642.344, 538.215 641.563, 537.376 640.231 C 535.916 637.913, 533.601 637.571, 532.046 639.444 M 556 642.182 C 544.501 649.930, 549.090 666, 562.802 666 C 568.189 666, 573.133 662.489, 574.905 657.403 C 576.683 652.303, 575.839 648.887, 571.684 644.353 C 567.293 639.561, 561.151 638.711, 556 642.182 M 509.997 644.750 C 501.686 652.281, 506.510 665, 517.677 665 C 521.488 665, 522.736 664.464, 525.600 661.600 C 528.502 658.698, 529 657.512, 529 653.500 C 529 649.488, 528.502 648.302, 525.600 645.400 C 522.722 642.522, 521.496 642, 517.616 642 C 514.017 642, 512.379 642.591, 509.997 644.750" stroke="none" fill="#c9b91c" fill-rule="evenodd"/><path d="M 531.210 472.233 C 526.650 473.388, 523.432 474.649, 524.058 475.036 C 525.513 475.935, 524.910 479.198, 523.184 479.772 C 522.459 480.014, 521.621 479.266, 521.317 478.105 C 520.656 475.578, 520.716 475.584, 516.700 477.635 C 509.979 481.069, 503.288 486.072, 502.188 488.487 C 501.521 489.951, 500.209 491, 499.043 491 C 496.682 491, 487.664 501.527, 483.550 509.086 L 480.787 514.161 483.844 512.581 C 487.967 510.449, 491.212 510.592, 494.328 513.043 C 499.874 517.406, 498.306 526.754, 491.661 528.947 C 486.081 530.788, 480.950 527.681, 479.414 521.528 C 478.687 518.618, 478.633 518.671, 476.817 524.013 C 475.797 527.014, 474.684 531.839, 474.343 534.735 C 474.003 537.631, 473.329 540, 472.847 540 C 472.364 540, 473.353 541.237, 475.046 542.750 C 479.285 546.538, 479.979 552.171, 476.803 557 C 475.355 559.200, 474.500 562.003, 474.500 564.547 L 474.500 568.593 477.337 567.180 C 485.638 563.045, 496.586 572.503, 494.499 582.007 C 493.685 585.711, 488.600 590.960, 485.673 591.116 C 484.407 591.184, 484.126 591.403, 485 591.642 C 485.825 591.867, 487.591 593.645, 488.924 595.591 C 491.094 598.761, 491.447 598.941, 492.298 597.315 C 493.847 594.358, 496.173 593, 499.691 593 C 506.870 593, 509.732 601.523, 504.134 606.234 L 501.268 608.645 504.384 610.720 C 506.098 611.861, 508.922 613.506, 510.660 614.376 C 512.397 615.246, 513.972 616.317, 514.160 616.757 C 514.347 617.196, 517.425 618.804, 521 620.329 C 524.575 621.854, 528.251 623.510, 529.169 624.009 C 530.689 624.835, 530.711 624.674, 529.412 622.208 C 526.608 616.884, 530.852 608.880, 537.145 607.621 C 546.470 605.756, 553.628 617.118, 547.798 624.529 L 545.597 627.328 555.048 626.661 C 564.562 625.989, 577.953 623.325, 572.898 623.111 C 568.930 622.942, 563.740 618.912, 562.166 614.777 C 558.448 605.008, 567.484 594.897, 577.652 597.449 C 579.118 597.817, 581.821 599.621, 583.659 601.459 C 586.560 604.360, 587 605.461, 587 609.823 C 587 613.810, 586.448 615.502, 584.324 618.026 L 581.649 621.206 587.581 618.211 C 603.405 610.224, 616.105 597.171, 623.014 581.796 C 628.133 570.406, 628.515 569, 626.490 569 C 625.586 569, 623.531 567.685, 621.923 566.077 C 615.891 560.045, 619.347 550, 627.455 550 C 630.789 550, 631 549.807, 630.994 546.750 C 630.986 542.281, 629.383 532.727, 627.400 525.329 C 625.747 519.163, 625.745 519.160, 623.684 521.079 C 619.489 524.988, 611.894 522.410, 610.431 516.580 C 609.741 513.834, 612.177 508.530, 614.545 507.621 C 615.435 507.280, 617.022 507, 618.072 507 C 619.851 507, 619.870 506.871, 618.353 505.100 C 617.022 503.545, 616.216 503.378, 613.915 504.179 C 610.274 505.449, 606.002 503.490, 604.197 499.725 C 602.646 496.488, 603.315 493.718, 606.328 490.904 C 607.523 489.789, 607.824 489.135, 606.997 489.451 C 606.114 489.787, 603.017 488.167, 599.497 485.527 C 591.591 479.598, 580.696 474.352, 571.293 471.947 C 567.106 470.876, 563.190 470, 562.590 470 C 561.962 470, 561.500 471.943, 561.500 474.587 C 561.500 478.372, 561.010 479.595, 558.694 481.587 C 554.984 484.778, 550.016 484.778, 546.306 481.586 C 543.951 479.560, 543.515 478.434, 543.596 474.586 C 543.710 469.119, 543.595 469.098, 531.210 472.233 M 566.635 480.073 C 563.411 482.608, 563.122 487.122, 566 490 C 568.730 492.730, 572.580 492.511, 575.641 489.450 C 578.600 486.491, 578.287 482.661, 574.847 479.750 C 572.130 477.451, 569.854 477.541, 566.635 480.073 M 586.347 484.510 C 584.877 485.603, 584.726 486.252, 585.609 487.691 C 587.320 490.482, 590.443 489.993, 590.804 486.878 C 591.170 483.721, 588.977 482.556, 586.347 484.510 M 535.390 486.426 C 534.480 488.797, 535.767 491.191, 537.747 490.810 C 538.854 490.597, 539.500 489.561, 539.500 488 C 539.500 485.149, 536.344 483.941, 535.390 486.426 M 511.944 494.844 C 507.154 498.723, 510.332 507, 516.611 507 C 522.311 507, 525.107 499.041, 520.811 495.039 C 518.093 492.507, 514.917 492.437, 511.944 494.844 M 581.898 501.281 C 574.097 506.518, 573.060 515.260, 579.479 521.679 C 582.268 524.468, 583.530 525, 587.353 525 C 596.599 525, 601.614 519.738, 600.767 510.926 C 600.234 505.381, 598.133 502.415, 593.282 500.362 C 588.715 498.429, 585.795 498.665, 581.898 501.281 M 532.487 505.042 C 531.667 507.624, 533.083 509.323, 535.644 508.830 C 536.859 508.596, 537.500 507.613, 537.500 505.986 C 537.500 502.640, 533.489 501.884, 532.487 505.042 M 550.329 509.504 C 542.908 512.624, 545.506 524, 553.640 524 C 559.231 524, 562.821 517.271, 560.021 512.039 C 558.499 509.194, 553.916 507.995, 550.329 509.504 M 513.635 516.073 C 508.590 520.041, 511.428 528.333, 517.831 528.333 C 524.713 528.333, 527.696 520.266, 522.365 516.073 C 520.916 514.933, 518.952 514, 518 514 C 517.048 514, 515.084 514.933, 513.635 516.073 M 565.357 520.513 C 564.680 522.276, 566.641 525, 568.587 525 C 570.202 525, 571.907 521.995, 571.282 520.250 C 570.649 518.487, 566.056 518.691, 565.357 520.513 M 531.105 530.373 C 529.603 532.183, 530.747 535, 532.985 535 C 535.754 535, 537.532 532.346, 536 530.500 C 534.448 528.630, 532.592 528.582, 531.105 530.373 M 485.571 538.571 C 482.175 541.968, 484.688 548, 489.500 548 C 492.517 548, 495 545.517, 495 542.500 C 495 539.483, 492.517 537, 489.500 537 C 488.204 537, 486.436 537.707, 485.571 538.571 M 544.258 540.686 C 543.026 540.934, 540.663 542.491, 539.008 544.145 C 536.502 546.652, 536 547.952, 536 551.942 C 536 557.875, 538.580 561.494, 543.956 563.105 C 549.282 564.701, 554.741 562.055, 557.412 556.584 C 559.147 553.030, 559.193 552.298, 557.912 548.674 C 555.809 542.727, 550.260 539.481, 544.258 540.686 M 600.655 541.829 C 597.033 545.831, 599.833 552, 605.272 552 C 608.073 552, 611 548.820, 611 545.777 C 611 543.256, 607.425 540, 604.655 540 C 603.365 540, 601.565 540.823, 600.655 541.829 M 580.503 542.997 C 578.260 545.475, 578.305 550.574, 580.591 553.101 C 582.893 555.644, 588.409 555.591, 591 553 C 593.393 550.607, 593.588 546.285, 591.443 543.223 C 589.372 540.265, 583.093 540.135, 580.503 542.997 M 507.522 545.250 C 506.002 546.570, 504.695 548.993, 504.358 551.113 C 503.877 554.136, 504.255 555.254, 506.675 557.963 C 510.726 562.497, 516.229 562.546, 520.216 558.084 C 523.954 553.901, 523.907 549.753, 520.077 545.923 C 516.390 542.236, 511.304 541.963, 507.522 545.250 M 568.332 546.578 C 567.999 547.445, 568.428 548.857, 569.286 549.714 C 571.403 551.831, 574 550.629, 574 547.531 C 574 545.490, 573.510 545, 571.469 545 C 570.076 545, 568.665 545.710, 568.332 546.578 M 522.389 564.430 C 521.393 567.025, 522.788 569.169, 525.246 568.820 C 526.898 568.585, 527.500 567.833, 527.500 566 C 527.500 564.167, 526.898 563.415, 525.246 563.180 C 523.893 562.988, 522.750 563.488, 522.389 564.430 M 595.256 567.029 C 592.538 568.122, 589.009 573.637, 589.004 576.800 C 589.002 578.064, 589.672 580.400, 590.494 581.989 C 595.833 592.313, 611.333 588.602, 611.333 577 C 611.333 568.838, 603.241 563.819, 595.256 567.029 M 526.500 576.208 C 519.005 580.506, 521.575 592, 530.031 592 C 534.013 592, 539 587.274, 539 583.500 C 539 580.167, 534.003 574.989, 530.827 575.030 C 529.547 575.047, 527.600 575.577, 526.500 576.208 M 551.077 577.589 C 545.935 581.916, 547.097 589.876, 553.249 592.463 C 562.751 596.458, 570.358 585.204, 563.077 577.923 C 559.350 574.197, 555.244 574.082, 551.077 577.589 M 575.011 581.487 C 574.290 582.356, 574.045 584.044, 574.423 585.548 C 574.973 587.740, 575.546 588.076, 578.284 587.811 C 580.766 587.571, 581.575 586.974, 581.827 585.195 C 582.451 580.793, 577.722 578.221, 575.011 581.487" stroke="none" fill="#debf1d" fill-rule="evenodd"/><path d="M 514.571 430.571 C 513.707 431.436, 513 432.754, 513 433.500 C 513 434.793, 515.592 438, 516.637 438 C 518.534 438, 521 435.550, 521 433.665 C 521 429.399, 517.452 427.691, 514.571 430.571 M 560.250 431.667 C 558.457 432.384, 558.706 436.950, 560.578 437.668 C 562.946 438.577, 565.737 435.391, 564.412 433.291 C 563.215 431.394, 562.059 430.943, 560.250 431.667 M 582.415 436.421 C 577.500 438.562, 575 442.515, 575 448.150 C 575 452.311, 575.504 453.579, 578.423 456.765 C 581.603 460.234, 582.248 460.500, 587.500 460.500 C 592.752 460.500, 593.397 460.234, 596.577 456.765 C 599.496 453.579, 600 452.311, 600 448.150 C 600 442.422, 597.461 438.508, 592.364 436.379 C 588.310 434.685, 586.384 434.693, 582.415 436.421 M 546.357 440.970 C 543.591 442.114, 541 445.837, 541 448.667 C 541 449.889, 542.013 452.014, 543.250 453.389 C 548.302 459.004, 557 455.982, 557 448.611 C 557 442.727, 551.557 438.819, 546.357 440.970 M 505.455 453.455 C 502.455 456.454, 502.323 459.870, 505.073 463.365 C 509.407 468.875, 518 465.667, 518 458.539 C 518 451.644, 510.361 448.548, 505.455 453.455 M 622 456 C 619.022 458.978, 619.333 464.330, 622.635 466.927 C 624.084 468.067, 626.273 469, 627.500 469 C 631.338 469, 635 465.303, 635 461.427 C 635 456.905, 632.066 454, 627.500 454 C 625.333 454, 623.238 454.762, 622 456 M 476.174 463.314 C 472.223 467.521, 474.332 475.602, 479.500 476.055 C 485.563 476.586, 489 473.916, 489 468.674 C 489 461.898, 480.746 458.448, 476.174 463.314 M 603.635 466.073 C 600.320 468.680, 600.120 473.102, 603.189 475.961 C 607.517 479.994, 614 477.063, 614 471.073 C 614 468.140, 610.195 464, 607.500 464 C 606.823 464, 605.084 464.933, 603.635 466.073 M 546.328 468.394 C 544.104 470.307, 543.545 471.633, 543.545 475 C 543.545 486.437, 559.849 487.154, 561.657 475.796 C 562.166 472.596, 561.832 471.679, 559.200 469.046 C 555.321 465.167, 550.372 464.916, 546.328 468.394 M 521.180 477.250 C 521.356 478.488, 522.175 479.500, 523 479.500 C 523.825 479.500, 524.644 478.488, 524.820 477.250 C 525.065 475.518, 524.646 475, 523 475 C 521.354 475, 520.935 475.518, 521.180 477.250 M 640.455 478.455 C 639.105 479.805, 638 481.850, 638 483 C 638 485.698, 642.302 490, 645 490 C 647.698 490, 652 485.698, 652 483 C 652 481.850, 650.895 479.805, 649.545 478.455 C 646.431 475.340, 643.569 475.340, 640.455 478.455 M 463.014 479.098 C 459.087 479.938, 454.389 484.603, 453.366 488.678 C 452.323 492.832, 454.975 499.082, 458.898 501.717 C 465.858 506.393, 475.151 503.306, 477.905 495.403 C 479.617 490.491, 478.862 486.982, 475.229 482.973 C 471.991 479.401, 467.805 478.073, 463.014 479.098 M 566.635 480.073 C 563.411 482.608, 563.122 487.122, 566 490 C 568.730 492.730, 572.580 492.511, 575.641 489.450 C 578.600 486.491, 578.287 482.661, 574.847 479.750 C 572.130 477.451, 569.854 477.541, 566.635 480.073 M 494.035 483.934 C 492.629 486.562, 492.729 487.586, 494.571 489.429 C 498.575 493.432, 504.721 489.084, 502.068 484.126 C 500.574 481.335, 495.491 481.213, 494.035 483.934 M 586.347 484.510 C 584.877 485.603, 584.726 486.252, 585.609 487.691 C 587.320 490.482, 590.443 489.993, 590.804 486.878 C 591.170 483.721, 588.977 482.556, 586.347 484.510 M 535.390 486.426 C 534.480 488.797, 535.767 491.191, 537.747 490.810 C 538.854 490.597, 539.500 489.561, 539.500 488 C 539.500 485.149, 536.344 483.941, 535.390 486.426 M 606.913 490.282 C 600.481 495.220, 603.579 504.400, 611.679 504.400 C 616.085 504.400, 619 501.240, 619 496.462 C 619 490.757, 611.373 486.857, 606.913 490.282 M 629.500 491.924 C 620.304 495.787, 622.633 509.200, 632.500 509.200 C 640.366 509.200, 644.440 499.938, 638.950 494.534 C 636.124 491.752, 632.374 490.717, 629.500 491.924 M 511.944 494.844 C 507.154 498.723, 510.332 507, 516.611 507 C 522.311 507, 525.107 499.041, 520.811 495.039 C 518.093 492.507, 514.917 492.437, 511.944 494.844 M 581.898 501.281 C 574.097 506.518, 573.060 515.260, 579.479 521.679 C 582.268 524.468, 583.530 525, 587.353 525 C 596.599 525, 601.614 519.738, 600.767 510.926 C 600.234 505.381, 598.133 502.415, 593.282 500.362 C 588.715 498.429, 585.795 498.665, 581.898 501.281 M 650.911 502.871 C 647.489 505.642, 647.710 511.494, 651.356 514.630 C 652.871 515.933, 655.111 517, 656.333 517 C 659.274 517, 662.909 514.371, 664.024 511.437 C 665.148 508.480, 663.479 503.327, 660.961 501.979 C 658.058 500.425, 653.423 500.837, 650.911 502.871 M 440.167 504.750 C 435.236 508.952, 437.959 516, 444.515 516 C 450.597 516, 452.946 509.855, 448.545 505.455 C 445.650 502.559, 443 502.337, 440.167 504.750 M 532.487 505.042 C 531.667 507.624, 533.083 509.323, 535.644 508.830 C 536.859 508.596, 537.500 507.613, 537.500 505.986 C 537.500 502.640, 533.489 501.884, 532.487 505.042 M 614.229 507.669 C 612.142 508.509, 609.790 514.027, 610.431 516.580 C 611.917 522.503, 619.493 524.984, 623.811 520.961 C 628.888 516.232, 625.370 506.905, 618.576 507.079 C 616.884 507.122, 614.928 507.388, 614.229 507.669 M 550.329 509.504 C 542.908 512.624, 545.506 524, 553.640 524 C 559.231 524, 562.821 517.271, 560.021 512.039 C 558.499 509.194, 553.916 507.995, 550.329 509.504 M 483.888 512.500 C 478.889 515.217, 477.922 521.855, 481.868 526.365 C 488.043 533.421, 499.296 527.722, 497.551 518.422 C 496.381 512.182, 489.756 509.311, 483.888 512.500 M 457.456 516.284 C 453.512 519.677, 453.718 525.465, 457.916 529.216 C 459.629 530.747, 461.947 532, 463.065 532 C 466.496 532, 470.654 529.249, 471.950 526.121 C 475.562 517.401, 464.715 510.040, 457.456 516.284 M 513.635 516.073 C 508.590 520.041, 511.428 528.333, 517.831 528.333 C 524.713 528.333, 527.696 520.266, 522.365 516.073 C 520.916 514.933, 518.952 514, 518 514 C 517.048 514, 515.084 514.933, 513.635 516.073 M 565.357 520.513 C 564.680 522.276, 566.641 525, 568.587 525 C 570.202 525, 571.907 521.995, 571.282 520.250 C 570.649 518.487, 566.056 518.691, 565.357 520.513 M 638.357 524.992 C 633.360 527.008, 631.382 534.601, 634.582 539.485 C 636.823 542.906, 642.265 544.547, 646.099 542.959 C 650.189 541.265, 652 538.321, 652 533.366 C 652 526.407, 645.197 522.231, 638.357 524.992 M 660.189 526.039 C 655.879 530.054, 658.549 537, 664.402 537 C 668.465 537, 671 534.398, 671 530.228 C 671 524.625, 664.436 522.082, 660.189 526.039 M 531.105 530.373 C 529.603 532.183, 530.747 535, 532.985 535 C 535.754 535, 537.532 532.346, 536 530.500 C 534.448 528.630, 532.592 528.582, 531.105 530.373 M 441 534 C 436.852 538.148, 439.826 546, 445.545 546 C 448.537 546, 453 541.917, 453 539.180 C 453 533.289, 445.115 529.885, 441 534 M 485.571 538.571 C 482.175 541.968, 484.688 548, 489.500 548 C 492.517 548, 495 545.517, 495 542.500 C 495 539.483, 492.517 537, 489.500 537 C 488.204 537, 486.436 537.707, 485.571 538.571 M 461.110 541.396 C 457.877 543.187, 456.078 546.717, 456.035 551.350 C 456.007 554.421, 456.688 555.888, 459.400 558.600 C 462.251 561.451, 463.520 562, 467.265 562 C 477.971 562, 482.939 549.334, 474.889 542.560 C 471.444 539.662, 465.192 539.133, 461.110 541.396 M 544.258 540.686 C 543.026 540.934, 540.663 542.491, 539.008 544.145 C 536.502 546.652, 536 547.952, 536 551.942 C 536 557.875, 538.580 561.494, 543.956 563.105 C 549.282 564.701, 554.741 562.055, 557.412 556.584 C 559.147 553.030, 559.193 552.298, 557.912 548.674 C 555.809 542.727, 550.260 539.481, 544.258 540.686 M 600.655 541.829 C 597.033 545.831, 599.833 552, 605.272 552 C 608.073 552, 611 548.820, 611 545.777 C 611 543.256, 607.425 540, 604.655 540 C 603.365 540, 601.565 540.823, 600.655 541.829 M 580.503 542.997 C 578.260 545.475, 578.305 550.574, 580.591 553.101 C 582.893 555.644, 588.409 555.591, 591 553 C 593.393 550.607, 593.588 546.285, 591.443 543.223 C 589.372 540.265, 583.093 540.135, 580.503 542.997 M 507.522 545.250 C 506.002 546.570, 504.695 548.993, 504.358 551.113 C 503.877 554.136, 504.255 555.254, 506.675 557.963 C 510.726 562.497, 516.229 562.546, 520.216 558.084 C 523.954 553.901, 523.907 549.753, 520.077 545.923 C 516.390 542.236, 511.304 541.963, 507.522 545.250 M 568.332 546.578 C 567.999 547.445, 568.428 548.857, 569.286 549.714 C 571.403 551.831, 574 550.629, 574 547.531 C 574 545.490, 573.510 545, 571.469 545 C 570.076 545, 568.665 545.710, 568.332 546.578 M 659.667 545.667 C 658.400 546.933, 659.006 549.788, 660.678 550.430 C 661.600 550.784, 662.967 550.462, 663.714 549.714 C 664.462 548.967, 664.784 547.600, 664.430 546.678 C 663.788 545.006, 660.933 544.400, 659.667 545.667 M 621.455 552.455 C 617.771 556.138, 618.031 562.185, 622.046 566.200 C 624.651 568.805, 625.612 569.162, 628.670 568.666 C 635.296 567.591, 638.895 562.243, 636.953 556.359 C 635.536 552.063, 632.544 550, 627.732 550 C 625.006 550, 623.205 550.705, 621.455 552.455 M 645.223 554.557 C 642.344 556.573, 642.205 561.970, 644.967 564.470 C 649.155 568.260, 656 565.391, 656 559.845 C 656 554.183, 649.976 551.227, 645.223 554.557 M 438 560.500 C 438 562.470, 438.507 563, 440.393 563 C 442.853 563, 444.038 561.454, 443.269 559.250 C 443.030 558.563, 441.746 558, 440.417 558 C 438.506 558, 438 558.523, 438 560.500 M 522.389 564.430 C 521.393 567.025, 522.788 569.169, 525.246 568.820 C 526.898 568.585, 527.500 567.833, 527.500 566 C 527.500 564.167, 526.898 563.415, 525.246 563.180 C 523.893 562.988, 522.750 563.488, 522.389 564.430 M 476.077 567.769 C 472.298 569.851, 469 575.084, 469 579 C 469 583.037, 472.377 588.240, 476.327 590.290 C 486.044 595.333, 497.443 585.931, 494.056 575.668 C 491.450 567.774, 482.892 564.014, 476.077 567.769 M 595.256 567.029 C 592.538 568.122, 589.009 573.637, 589.004 576.800 C 589.002 578.064, 589.672 580.400, 590.494 581.989 C 595.833 592.313, 611.333 588.602, 611.333 577 C 611.333 568.838, 603.241 563.819, 595.256 567.029 M 656.321 571.613 C 653.224 573.140, 650 578.150, 650 581.433 C 650 584.883, 652.963 589.930, 655.872 591.434 C 660.124 593.632, 664.812 593.383, 668.697 590.750 C 675.167 586.366, 674.860 576.834, 668.102 572.287 C 664.141 569.621, 660.754 569.427, 656.321 571.613 M 443.455 577.455 C 437.943 582.966, 441.872 592, 449.780 592 C 454.795 592, 458.400 588.445, 458.400 583.500 C 458.400 575.805, 448.933 571.976, 443.455 577.455 M 526.500 576.208 C 519.005 580.506, 521.575 592, 530.031 592 C 534.013 592, 539 587.274, 539 583.500 C 539 580.167, 534.003 574.989, 530.827 575.030 C 529.547 575.047, 527.600 575.577, 526.500 576.208 M 551.077 577.589 C 545.935 581.916, 547.097 589.876, 553.249 592.463 C 562.751 596.458, 570.358 585.204, 563.077 577.923 C 559.350 574.197, 555.244 574.082, 551.077 577.589 M 641.061 579.962 C 639.151 581.143, 640.226 584.500, 642.514 584.500 C 643.776 584.500, 644.610 583.727, 644.803 582.377 C 645.133 580.062, 643.062 578.726, 641.061 579.962 M 575.011 581.487 C 574.290 582.356, 574.045 584.044, 574.423 585.548 C 574.973 587.740, 575.546 588.076, 578.284 587.811 C 580.766 587.571, 581.575 586.974, 581.827 585.195 C 582.451 580.793, 577.722 578.221, 575.011 581.487 M 619.455 590.455 C 614.730 595.179, 617.620 602, 624.345 602 C 628.485 602, 631 599.419, 631 595.171 C 631 588.617, 624.108 585.801, 619.455 590.455 M 494 595 C 489.589 599.411, 493.407 608, 499.780 608 C 503.583 608, 507 604.302, 507 600.186 C 507 595.916, 503.956 593, 499.500 593 C 497.333 593, 495.238 593.762, 494 595 M 568.062 598.827 C 564.393 600.795, 561 606.051, 561 609.767 C 561 613.845, 563.794 618.904, 567.190 620.974 C 576.020 626.358, 587 620.275, 587 610 C 587 599.938, 576.996 594.036, 568.062 598.827 M 450.500 598.945 C 447.074 600.347, 444.709 603.828, 443.998 608.514 C 443.622 610.992, 443.483 612.850, 443.690 612.643 C 443.897 612.436, 445.582 613.782, 447.433 615.633 C 451.716 619.916, 456.423 620.198, 460.889 616.440 C 466.826 611.444, 465.535 602.375, 458.466 599.421 C 454.665 597.833, 453.402 597.758, 450.500 598.945 M 474.332 601.578 C 473.999 602.445, 474.463 603.892, 475.363 604.792 C 476.879 606.307, 477.121 606.307, 478.637 604.792 C 480.681 602.747, 479.743 600, 477 600 C 475.865 600, 474.665 600.710, 474.332 601.578 M 638.174 604.314 C 633.476 609.316, 637.173 618, 644 618 C 650.938 618, 654.690 608.876, 649.686 604.174 C 646.514 601.195, 641.043 601.261, 638.174 604.314 M 536.500 607.713 C 535.400 607.978, 533.311 609.313, 531.858 610.681 C 524.208 617.880, 530.906 630.553, 541.328 628.598 C 545.750 627.769, 550 623.002, 550 618.874 C 550 614.375, 547.272 610.012, 543.466 608.421 C 539.926 606.942, 539.771 606.926, 536.500 607.713 M 621.030 612.286 C 617.067 614.280, 615.389 618.110, 616.889 621.733 C 618.082 624.613, 621.527 627, 624.491 627 C 625.260 627, 627.114 625.946, 628.611 624.658 C 635.090 619.085, 628.593 608.481, 621.030 612.286 M 605.435 613.424 C 603.018 615.191, 604.275 618.242, 607.246 617.820 C 608.649 617.621, 609.614 616.698, 609.803 615.377 C 610.177 612.758, 607.799 611.695, 605.435 613.424 M 504.500 613.716 C 500.528 614.677, 498 618.093, 498 622.500 C 498 629.063, 503.441 633, 509.670 630.944 C 512.988 629.849, 516 625.831, 516 622.500 C 516 619.647, 513.214 615.419, 510.528 614.195 C 507.784 612.944, 507.713 612.939, 504.500 613.716 M 473.500 614.924 C 467.295 617.530, 465.645 625.099, 470.273 629.727 C 475.900 635.355, 485.400 631.444, 485.400 623.500 C 485.400 617.590, 478.681 612.747, 473.500 614.924 M 593 629 C 591.900 630.100, 591 632.300, 591 633.889 C 591 640.891, 599.104 643.905, 603.667 638.601 C 606.544 635.256, 606.608 633.043, 603.927 629.635 C 601.330 626.333, 595.978 626.022, 593 629 M 614.500 637.195 C 610.058 639.714, 609.660 644.801, 613.657 647.945 C 616.676 650.320, 619.538 649.939, 622.250 646.802 C 624.665 644.010, 624.440 641.349, 621.545 638.455 C 618.836 635.746, 617.483 635.504, 614.500 637.195 M 480.455 639.455 C 477.897 642.012, 477.003 648.266, 479.016 649.510 C 479.575 649.856, 479.731 650.627, 479.362 651.224 C 478.960 651.874, 479.157 652.021, 479.853 651.591 C 480.491 651.196, 481.256 651.503, 481.551 652.273 C 482.115 653.741, 485.809 653.871, 489.841 652.565 C 492.928 651.566, 495.313 645.954, 494.057 642.649 C 491.888 636.944, 484.662 635.247, 480.455 639.455 M 532.571 639.571 C 530.560 641.583, 531.671 644, 534.607 644 C 536.464 644, 537 643.464, 537 641.607 C 537 638.671, 534.583 637.560, 532.571 639.571 M 557.316 641.931 C 551.908 644.402, 549.591 648.675, 550.290 654.883 C 551.512 665.725, 564.660 669.707, 571.924 661.434 C 574.320 658.704, 574.999 656.999, 574.996 653.715 C 574.987 643.587, 566.325 637.814, 557.316 641.931 M 511.763 643.565 C 501.773 648.985, 506.095 665, 517.546 665 C 522.974 665, 529 658.949, 529 653.500 C 529 650.390, 526.003 645.433, 523.080 643.706 C 519.566 641.630, 515.424 641.579, 511.763 643.565" stroke="none" fill="#eecd28" fill-rule="evenodd"/><path d="M 480.453 661.061 C 478.235 663.339, 473.207 666.678, 469 668.666 C 464.875 670.615, 460.861 672.526, 460.080 672.913 C 459.300 673.300, 458.040 675.390, 457.280 677.558 C 453.899 687.212, 442.002 726.506, 442.242 727.226 C 442.389 727.666, 445.882 725.041, 450.004 721.393 C 459.782 712.742, 470.030 705.471, 477.500 701.883 C 483.840 698.839, 486.950 698.368, 489.986 699.992 C 495.964 703.192, 495.919 723.531, 489.875 749.892 C 488.817 754.508, 488.099 758.432, 488.279 758.612 C 488.458 758.792, 490.333 754.790, 492.445 749.719 C 497.924 736.559, 513.401 702.269, 519.172 690.500 C 521.869 685, 523.047 681.850, 521.789 683.500 C 517.806 688.726, 512.791 694.013, 509.787 696.152 C 506.967 698.160, 506.841 698.166, 505.501 696.360 C 504.741 695.337, 503.569 691.350, 502.897 687.500 C 502.224 683.650, 501.521 680.312, 501.336 680.083 C 501.151 679.854, 499.312 680.992, 497.250 682.612 C 487.807 690.032, 484.610 690.798, 483.625 685.875 C 482.623 680.866, 482.904 666.384, 484.063 663.315 C 484.918 661.049, 484.879 660.744, 483.863 661.750 C 483.168 662.438, 481.937 663, 481.126 663 C 480.055 663, 480.286 662.324, 481.971 660.531 C 483.247 659.173, 484.745 658.342, 485.300 658.685 C 485.873 659.040, 486.001 658.810, 485.595 658.155 C 484.646 656.619, 484.936 656.455, 480.453 661.061 M 452.702 852.289 C 448.457 862.021, 429.928 895.561, 420.469 910.636 C 413.012 922.519, 400.766 940.635, 394.036 949.738 C 392.363 952, 391.313 956.863, 389 973.048 C 372.114 1091.228, 368.249 1200.549, 377.035 1311.500 C 382.209 1376.837, 387.831 1422.082, 409.465 1572.500 C 437.682 1768.684, 446.995 1847.685, 453.204 1943.500 C 454.902 1969.700, 454.902 2115.117, 453.205 2160.500 C 450.815 2224.389, 447.527 2291.248, 444.476 2338 C 443.668 2350.375, 443.005 2362.846, 443.004 2365.713 L 443 2370.927 452.250 2376.384 L 461.500 2381.840 462.085 2356.170 C 462.981 2316.888, 462.246 2116.220, 461.054 2074.500 C 458.519 1985.815, 454.365 1903.779, 449.459 1845.500 C 445.081 1793.505, 441.248 1761.935, 430.942 1693 C 398.397 1475.319, 387.555 1364.103, 387.608 1248.500 C 387.642 1176.248, 390.781 1135.495, 401.588 1067 C 412.136 1000.153, 433.121 913.769, 452.949 855.578 C 454.621 850.671, 455.859 846.526, 455.700 846.367 C 455.541 846.208, 454.192 848.873, 452.702 852.289 M 738.412 1161.335 C 694.881 1183.964, 649.736 1223.641, 607.374 1276.500 C 555.616 1341.083, 509.943 1417.178, 471.727 1502.500 C 454.993 1539.861, 429.797 1604.204, 429.763 1609.664 C 429.727 1615.545, 436.492 1657.908, 437.333 1657.067 C 437.848 1656.552, 440.230 1648.339, 442.626 1638.816 C 449.446 1611.717, 447.451 1614.499, 488.299 1575.126 C 507.659 1556.464, 526.650 1537.944, 530.500 1533.970 C 534.752 1529.581, 542.070 1523.752, 549.141 1519.122 C 565.906 1508.145, 564.965 1508.843, 562 1509.588 C 557.707 1510.667, 539.848 1519.616, 532 1524.620 C 517.637 1533.780, 506.276 1542.769, 479.199 1566.401 C 469.684 1574.705, 461.468 1581.651, 460.941 1581.836 C 460.377 1582.034, 460.427 1581.009, 461.064 1579.336 C 461.658 1577.776, 465.078 1568.400, 468.665 1558.500 C 476.359 1537.265, 483.995 1518.333, 490.420 1504.564 C 496.143 1492.299, 504.763 1481.414, 526 1459.633 C 551.153 1433.836, 574.670 1414.663, 604.811 1395.383 C 622.249 1384.228, 635.961 1377.203, 649.550 1372.463 C 660.853 1368.519, 656.542 1368.872, 641.223 1373.144 C 606.687 1382.774, 566.555 1405.872, 528.611 1437.957 C 523.287 1442.460, 518.532 1445.999, 518.045 1445.822 C 517.558 1445.645, 521.650 1437.175, 527.137 1427 C 573.873 1340.346, 608.267 1290.103, 656.640 1237.823 C 681.049 1211.442, 720.812 1176, 741.803 1161.914 C 747.470 1158.111, 751.745 1155.011, 751.303 1155.025 C 750.862 1155.039, 745.060 1157.878, 738.412 1161.335 M 74.500 1536.734 C 75.050 1537.283, 79.775 1540.569, 85 1544.036 C 127.189 1572.025, 176.825 1616.906, 222.650 1668.500 C 284.777 1738.448, 298.288 1753.852, 306.416 1764 C 316.920 1777.114, 324.188 1787.145, 323.607 1787.727 C 323.388 1787.945, 318.775 1785.902, 313.355 1783.187 C 272.033 1762.487, 234.418 1751.717, 199 1750.445 L 186.500 1749.996 197.500 1751.989 C 222.302 1756.483, 244.337 1764.265, 271.806 1778.232 C 302.908 1794.045, 339.426 1815.336, 345.069 1820.946 C 350.708 1826.553, 401.867 1917, 399.399 1917 C 399.079 1917, 394.021 1913.982, 388.159 1910.294 C 366.784 1896.847, 347.152 1887.845, 326.633 1882.083 C 315.496 1878.956, 289.283 1874.384, 288.274 1875.393 C 287.940 1875.727, 288.567 1876, 289.668 1876 C 293.213 1876, 313.486 1882.866, 325.159 1888.021 C 331.397 1890.775, 341 1895.742, 346.500 1899.058 C 357.156 1905.482, 382.251 1923.821, 403.769 1940.909 C 415.441 1950.177, 417.147 1951.929, 419.349 1956.909 C 428.039 1976.552, 440.146 2003.480, 440.406 2003.739 C 440.575 2003.908, 441.523 2003.737, 442.511 2003.357 C 444.195 2002.711, 444.269 2001.212, 443.687 1979.798 L 443.065 1956.929 431.864 1935.715 C 401.573 1878.345, 373.089 1832.638, 324.542 1763.500 C 289.358 1713.393, 269.017 1688.854, 235.809 1656.457 C 201.647 1623.129, 165.643 1594.036, 125.500 1567.323 C 109.395 1556.606, 71.855 1534.090, 74.500 1536.734" stroke="none" fill="#9ea71f" fill-rule="evenodd"/><path d="M 456.127 654.951 C 454.450 655.360, 453.208 656.918, 451.895 660.260 C 447.299 671.962, 425.477 743.810, 426.277 744.610 C 426.430 744.764, 429.938 741.202, 434.070 736.695 C 441.432 728.667, 441.650 728.276, 444.792 717.500 C 446.556 711.450, 450.420 698.956, 453.380 689.735 C 456.339 680.514, 458.364 672.725, 457.880 672.426 C 456.673 671.680, 456.782 664.323, 458.069 659.690 C 459.391 654.931, 459.101 654.224, 456.127 654.951 M 482.555 659.767 C 480.062 662.690, 479.907 663.165, 481.547 662.849 C 483.224 662.526, 486.787 657.325, 485.841 656.580 C 485.653 656.432, 484.175 657.866, 482.555 659.767 M 518.806 691.582 C 501.098 728.078, 488.608 757.435, 482.962 775.832 C 478.009 791.972, 471.976 808.179, 462.985 829.500 C 441.685 880.009, 414.500 985.168, 401.588 1067 C 390.781 1135.495, 387.642 1176.248, 387.608 1248.500 C 387.555 1364.103, 398.397 1475.319, 430.942 1693 C 441.248 1761.935, 445.081 1793.505, 449.459 1845.500 C 454.365 1903.779, 458.519 1985.815, 461.054 2074.500 C 462.246 2116.220, 462.981 2316.888, 462.085 2356.170 L 461.500 2381.840 452.250 2376.384 L 443 2370.927 443.004 2365.713 C 443.005 2362.846, 443.668 2350.375, 444.476 2338 C 447.527 2291.248, 450.815 2224.389, 453.205 2160.500 C 454.902 2115.117, 454.902 1969.700, 453.204 1943.500 C 446.995 1847.685, 437.682 1768.684, 409.465 1572.500 C 387.831 1422.082, 382.209 1376.837, 377.035 1311.500 C 368.259 1200.673, 372.159 1090.345, 389.001 973 C 390.540 962.275, 391.715 953.408, 391.612 953.296 C 391.509 953.184, 388.610 956.695, 385.169 961.098 L 378.913 969.105 376.517 986.302 C 366.536 1057.961, 362.004 1124.401, 362.002 1199.103 C 361.998 1298.011, 368.518 1365.257, 397.548 1565.719 C 415.814 1691.850, 422.263 1739.432, 428.421 1793.500 C 430.363 1810.550, 432.207 1826.300, 432.520 1828.500 L 433.090 1832.500 429.744 1827 C 423.476 1816.694, 416.692 1806.975, 416.147 1807.520 C 415.848 1807.819, 414.455 1817.612, 413.052 1829.282 L 410.500 1850.500 407.142 1837 C 399.159 1804.908, 383.122 1762.184, 366.910 1729.819 C 356.551 1709.140, 336.293 1673.374, 335.428 1674.239 C 335.096 1674.571, 340.908 1733.519, 342.405 1745 C 342.733 1747.510, 341.365 1745.359, 337.571 1737.399 C 317.118 1694.487, 290.116 1655.966, 258.058 1623.968 C 203.712 1569.724, 137.898 1536.246, 56.665 1521.525 C 48.505 1520.047, 41.606 1519.061, 41.332 1519.334 C 41.059 1519.608, 84.756 1569.436, 138.437 1630.062 C 192.119 1690.689, 235.917 1740.417, 235.766 1740.568 C 235.615 1740.719, 231.849 1739.787, 227.398 1738.498 C 214.389 1734.730, 204.270 1733.655, 188.084 1734.322 C 175.349 1734.846, 149.940 1738.726, 148.264 1740.403 C 148.009 1740.657, 150.208 1742.080, 153.151 1743.564 C 172.099 1753.121, 217.614 1782.652, 246 1803.805 C 270.082 1821.751, 314.550 1857.900, 326.980 1869.634 C 327.825 1870.432, 325.756 1869.972, 322.162 1868.564 C 310.839 1864.126, 299.315 1861.769, 288.535 1861.684 C 278.709 1861.608, 261.371 1863.575, 260.600 1864.854 C 260.386 1865.209, 270.800 1873.150, 283.742 1882.500 C 323.650 1911.331, 347.065 1930.909, 369.542 1954.239 C 397.204 1982.952, 417.529 2011.842, 435.834 2048.466 L 444.314 2065.433 443.636 2102.966 C 442.368 2173.202, 437.721 2279.407, 432.544 2356.500 C 431.805 2367.500, 431.268 2376.546, 431.351 2376.602 C 436.067 2379.818, 471.386 2399.947, 471.723 2399.610 C 471.992 2399.341, 472.656 2372.881, 473.198 2340.810 C 474.667 2253.901, 473.123 2103.907, 469.918 2022 C 469.326 2006.875, 468.700 1982.575, 468.528 1968 C 468.334 1951.639, 467.608 1936.717, 466.629 1929 C 465.758 1922.125, 464.343 1905.250, 463.486 1891.500 C 459.728 1831.202, 451.167 1748.920, 445.074 1714.532 C 444.298 1710.151, 444.580 1708.497, 447.466 1700.532 C 468.382 1642.810, 497.526 1597.385, 542.462 1552.468 C 556.493 1538.442, 577.850 1518.902, 598.714 1501 C 605.641 1495.057, 609.358 1491.225, 608.643 1490.765 C 608.014 1490.361, 600.975 1490.030, 593 1490.030 C 574.097 1490.029, 564.347 1492.253, 548.767 1500.118 L 542.539 1503.262 551.658 1493.381 C 562.535 1481.595, 591.784 1452.841, 608.507 1437.493 C 639.670 1408.894, 674.382 1380.949, 701.433 1362.683 L 710.500 1356.561 705.500 1355.652 C 702.750 1355.151, 690.150 1354.704, 677.500 1354.658 C 655.393 1354.577, 654.119 1354.680, 644.691 1357.299 C 639.297 1358.798, 632.160 1361.170, 628.833 1362.570 C 625.506 1363.971, 622.656 1364.978, 622.501 1364.808 C 622.346 1364.639, 661.320 1311.196, 709.110 1246.047 C 756.899 1180.898, 796 1127.271, 796 1126.876 C 796 1125.055, 757.437 1136.737, 737 1144.750 C 638.748 1183.269, 564.947 1258.736, 524.543 1362 C 521.423 1369.975, 518.450 1377.400, 517.937 1378.500 C 517.345 1379.768, 517.104 1367.229, 517.278 1344.250 C 517.429 1324.313, 517.264 1308, 516.910 1308 C 516.556 1308, 515.344 1310.138, 514.216 1312.750 C 513.089 1315.362, 509.166 1324, 505.500 1331.945 C 483.793 1378.980, 469.482 1424.677, 461.483 1472.500 C 460.012 1481.300, 458.703 1488.610, 458.576 1488.745 C 458.448 1488.879, 456.367 1479.767, 453.950 1468.495 C 451.534 1457.223, 449.231 1448, 448.833 1448 C 447.679 1448, 437.542 1467.485, 432.111 1480.143 C 429.376 1486.517, 425.195 1497.864, 422.819 1505.358 C 418.838 1517.917, 417 1521.671, 417 1517.246 C 417 1516.281, 415.212 1499.518, 413.026 1479.996 C 406.795 1424.344, 403.046 1380.112, 399.801 1324 C 398.146 1295.370, 398.147 1202.106, 399.803 1178 C 402.562 1137.836, 405.485 1111.832, 411.607 1073 C 430.965 950.214, 469.875 822.858, 523.358 707.231 C 529.826 693.247, 530.749 690.578, 529.934 688.231 C 529.412 686.729, 528.651 682.837, 528.242 679.582 L 527.500 673.664 518.806 691.582 M 738.412 1161.335 C 694.881 1183.964, 649.736 1223.641, 607.374 1276.500 C 555.616 1341.083, 509.943 1417.178, 471.727 1502.500 C 454.993 1539.861, 429.797 1604.204, 429.763 1609.664 C 429.727 1615.545, 436.492 1657.908, 437.333 1657.067 C 437.848 1656.552, 440.230 1648.339, 442.626 1638.816 C 449.446 1611.717, 447.451 1614.499, 488.299 1575.126 C 507.659 1556.464, 526.650 1537.944, 530.500 1533.970 C 534.752 1529.581, 542.070 1523.752, 549.141 1519.122 C 565.906 1508.145, 564.965 1508.843, 562 1509.588 C 557.707 1510.667, 539.848 1519.616, 532 1524.620 C 517.637 1533.780, 506.276 1542.769, 479.199 1566.401 C 469.684 1574.705, 461.468 1581.651, 460.941 1581.836 C 460.377 1582.034, 460.427 1581.009, 461.064 1579.336 C 461.658 1577.776, 465.078 1568.400, 468.665 1558.500 C 476.359 1537.265, 483.995 1518.333, 490.420 1504.564 C 496.143 1492.299, 504.763 1481.414, 526 1459.633 C 551.153 1433.836, 574.670 1414.663, 604.811 1395.383 C 622.249 1384.228, 635.961 1377.203, 649.550 1372.463 C 660.853 1368.519, 656.542 1368.872, 641.223 1373.144 C 606.687 1382.774, 566.555 1405.872, 528.611 1437.957 C 523.287 1442.460, 518.532 1445.999, 518.045 1445.822 C 517.558 1445.645, 521.650 1437.175, 527.137 1427 C 573.873 1340.346, 608.267 1290.103, 656.640 1237.823 C 681.049 1211.442, 720.812 1176, 741.803 1161.914 C 747.470 1158.111, 751.745 1155.011, 751.303 1155.025 C 750.862 1155.039, 745.060 1157.878, 738.412 1161.335 M 74.500 1536.734 C 75.050 1537.283, 79.775 1540.569, 85 1544.036 C 127.189 1572.025, 176.825 1616.906, 222.650 1668.500 C 284.777 1738.448, 298.288 1753.852, 306.416 1764 C 316.920 1777.114, 324.188 1787.145, 323.607 1787.727 C 323.388 1787.945, 318.775 1785.902, 313.355 1783.187 C 272.033 1762.487, 234.418 1751.717, 199 1750.445 L 186.500 1749.996 197.500 1751.989 C 222.302 1756.483, 244.337 1764.265, 271.806 1778.232 C 302.908 1794.045, 339.426 1815.336, 345.069 1820.946 C 350.708 1826.553, 401.867 1917, 399.399 1917 C 399.079 1917, 394.021 1913.982, 388.159 1910.294 C 366.784 1896.847, 347.152 1887.845, 326.633 1882.083 C 315.496 1878.956, 289.283 1874.384, 288.274 1875.393 C 287.940 1875.727, 288.567 1876, 289.668 1876 C 293.213 1876, 313.486 1882.866, 325.159 1888.021 C 331.397 1890.775, 341 1895.742, 346.500 1899.058 C 357.156 1905.482, 382.251 1923.821, 403.769 1940.909 C 415.441 1950.177, 417.147 1951.929, 419.349 1956.909 C 428.039 1976.552, 440.146 2003.480, 440.406 2003.739 C 440.575 2003.908, 441.523 2003.737, 442.511 2003.357 C 444.195 2002.711, 444.269 2001.212, 443.687 1979.798 L 443.065 1956.929 431.864 1935.715 C 401.573 1878.345, 373.089 1832.638, 324.542 1763.500 C 289.358 1713.393, 269.017 1688.854, 235.809 1656.457 C 201.647 1623.129, 165.643 1594.036, 125.500 1567.323 C 109.395 1556.606, 71.855 1534.090, 74.500 1536.734" stroke="none" fill="#97971d" fill-rule="evenodd"/><path d="M 527.563 3.364 C 515.534 16.119, 501.217 62.804, 494.093 112.500 C 483.853 183.939, 487.121 263.415, 502.976 328.500 C 513.466 371.559, 526.496 396.803, 536.308 393.073 C 544.135 390.097, 555.079 367.382, 562.977 337.719 C 580.569 271.647, 584.797 185.877, 574.058 112.919 C 566.627 62.430, 552.809 17.756, 540.362 3.979 C 535.667 -1.218, 532.049 -1.392, 527.563 3.364 M 532.239 2.250 C 527.882 7.667, 520.100 27.663, 514.624 47.515 C 498.109 107.389, 493.047 184.257, 501.016 254.193 C 506.510 302.418, 517.920 347.650, 529.630 367.632 C 533.668 374.522, 534.221 374.589, 537.835 368.624 C 551.125 346.696, 562.813 298.346, 568.685 241 C 571.070 217.707, 571.060 157.118, 568.666 134 C 562.722 76.574, 549.960 25.604, 535.931 3.250 C 534.315 0.675, 533.651 0.495, 532.239 2.250 M 544.471 43 C 544.738 46.025, 545.629 55.700, 546.450 64.500 C 552.009 124.099, 552.299 188.967, 547.473 294 C 545.551 335.846, 545.545 335.686, 548.624 324.500 C 552.420 310.708, 557.733 283.229, 559.951 265.919 C 563.310 239.698, 564.306 218.732, 563.678 187.500 C 562.791 143.402, 558.870 109.902, 548.424 57.158 C 544.574 37.721, 543.739 34.731, 544.471 43 M 804 64.865 C 771.998 77.461, 709.565 149.502, 671.218 218.083 C 636.676 279.857, 611.933 350.169, 611.598 387.500 C 611.514 396.952, 611.792 398.992, 613.575 402 C 615.470 405.196, 616.043 405.495, 620.172 405.447 C 640.118 405.212, 691.566 353.714, 731.757 293.753 C 755.363 258.536, 772.827 226.134, 788.436 188.595 C 812.871 129.828, 824.168 70.512, 812.150 64.080 C 809.598 62.715, 809.418 62.732, 804 64.865 M 807.126 67.264 C 795.072 73.425, 763.826 102.922, 743.845 127 C 697.567 182.770, 660.123 250.237, 638.674 316.500 C 629.222 345.702, 623.236 376.836, 625.410 385.496 C 626.216 388.707, 627.980 388.328, 636 383.217 C 664.946 364.770, 709.645 313.028, 742.455 259.985 C 774.896 207.540, 801.213 143.308, 810.457 94.013 C 812.403 83.634, 813.653 64.995, 812.402 65.014 C 811.906 65.022, 809.532 66.034, 807.126 67.264 M 258.405 85.102 C 255.443 88.371, 255.226 105.212, 257.950 120.565 C 269.328 184.709, 308.619 269.644, 357.166 335.040 C 388.257 376.920, 422.167 410.883, 443.594 421.601 C 456.201 427.908, 460.769 425.332, 461.693 411.398 C 463.815 379.388, 440.117 307.309, 407.874 247.707 C 378.626 193.640, 340.292 142.419, 305 110.245 C 280.236 87.670, 264.012 78.915, 258.405 85.102 M 260 91.401 C 260 95.471, 260.878 103.908, 261.951 110.151 C 271.088 163.287, 302.680 236.860, 341.540 295.500 C 367.086 334.049, 398.235 370.617, 423.624 391.864 C 432.607 399.382, 444.235 407, 446.727 407 C 448.337 407, 448.440 396.379, 446.937 385.322 C 445.505 374.785, 440.003 352.075, 435.473 338 C 414.044 271.420, 378.232 205.848, 333.086 150.528 C 319.854 134.314, 294.433 108.164, 282.526 98.517 C 274.226 91.793, 262.547 84.009, 260.750 84.003 C 260.337 84.001, 260 87.330, 260 91.401 M 514.149 95.837 C 514.067 96.572, 513.326 102.647, 512.502 109.337 C 507.678 148.505, 505.531 212.609, 507.919 246.168 C 510.564 283.339, 517.682 319.812, 525.784 337.708 L 527.500 341.500 528.032 330.500 C 529.085 308.714, 527.262 275.699, 521.021 203.500 C 519 180.124, 516.467 140.862, 515.117 112 C 514.667 102.375, 514.232 95.102, 514.149 95.837 M 794.500 119.682 C 770.575 173.876, 739.677 228.232, 675.594 328.864 C 665.309 345.014, 657.088 358.421, 657.324 358.658 C 657.843 359.176, 677.598 337.859, 688.120 325.426 C 726.105 280.545, 757.756 225.014, 783.272 158.483 C 791.207 137.793, 802.159 105.976, 801.758 104.775 C 801.598 104.294, 798.332 111.002, 794.500 119.682 M 294.668 121 C 332.813 172.680, 365.350 227.885, 421.973 337 C 429.822 352.125, 436.626 364.915, 437.094 365.421 C 438.429 366.870, 434.449 353.223, 427.462 332.396 C 403.950 262.308, 363.716 196.401, 301.456 125.987 C 288.056 110.832, 286.105 109.399, 294.668 121 M 737.870 150.626 C 695.392 207.912, 662.185 267.443, 646.459 314.504 C 641.610 329.015, 635.244 355.577, 636.350 356.683 C 636.842 357.176, 645.125 344.031, 652.219 331.500 C 659.225 319.123, 674.294 288.618, 690.502 254 C 716.017 199.504, 740.617 150.206, 747.763 139.250 C 748.570 138.012, 748.947 137, 748.602 137 C 748.257 137, 743.427 143.132, 737.870 150.626 M 291 176.217 C 291 179.181, 320.187 240.768, 330.492 259.551 C 352.764 300.142, 377.965 336.328, 399.979 359.326 C 411.360 371.215, 423.872 382.461, 424.747 381.586 C 425.715 380.618, 409.141 352.013, 396.585 332.980 C 389.865 322.795, 375.447 301.659, 364.545 286.013 C 335.483 244.305, 317.780 217.970, 304.044 196.010 C 291.755 176.363, 291 175.217, 291 176.217 M 995.500 255.624 C 939.752 263.657, 868.837 292.338, 805.705 332.384 C 745.888 370.327, 690.312 422.212, 681.617 448.232 C 678.416 457.812, 682.715 461, 698.837 461 C 741.573 461, 825.746 428.939, 892.500 387.235 C 952.777 349.578, 1011.001 295.656, 1021.470 267.793 C 1023.622 262.067, 1022.951 258.776, 1019.274 257.012 C 1016.517 255.690, 1001.236 254.797, 995.500 255.624 M 1000.761 260.534 C 980.125 263.347, 945.719 273.317, 917 284.806 C 846.442 313.031, 779.718 356.088, 730.896 404.900 C 714.295 421.497, 705.502 432.096, 700.534 441.499 L 697.893 446.498 701.074 447.149 C 708.919 448.753, 733.243 444.900, 755.639 438.504 C 824.969 418.706, 900.493 378.090, 959.500 328.871 C 990.087 303.358, 1025.184 263.264, 1019.874 259.901 C 1018.048 258.744, 1012.555 258.926, 1000.761 260.534 M 983 295.112 C 967.073 307.182, 929.180 332.197, 904 347.264 C 868.696 368.389, 834.661 387.034, 772.203 419.467 C 754.439 428.691, 740.078 436.411, 740.289 436.623 C 740.885 437.218, 766.075 429.654, 780 424.699 C 847.707 400.607, 910.279 361.826, 978.908 301.420 C 990.062 291.602, 995.035 286.836, 993.872 287.077 C 993.668 287.120, 988.775 290.735, 983 295.112 M 72.110 289.026 C 63.128 290.903, 62.031 294.836, 67.481 305.616 C 81.843 334.020, 136.122 383.146, 191.785 418.117 C 212.029 430.837, 223.302 437.181, 245 448.067 C 304.995 478.166, 370.259 497.637, 397.470 493.557 C 404.167 492.552, 407.444 489.179, 406.517 484.241 C 403.247 466.808, 369.282 429.754, 326 396.400 C 275.164 357.225, 215.945 325.139, 157 304.831 C 123.492 293.287, 85.538 286.221, 72.110 289.026 M 923 292.927 C 856.841 321.113, 799.845 353.968, 760.198 386.775 C 750.078 395.150, 726.012 419.241, 723.986 423.025 C 723.036 424.802, 723.857 424.593, 730 421.500 C 748.724 412.071, 769.922 398.315, 831.500 355.636 C 872.450 327.254, 892.143 314.148, 915.750 299.569 C 923.587 294.728, 930 290.595, 930 290.384 C 930 289.905, 930.643 289.671, 923 292.927 M 67.461 297.750 C 72.644 307.269, 80.761 316.880, 98.940 335.020 C 137.477 373.475, 183.275 406.121, 237 433.433 C 290.406 460.582, 350.108 480, 380.175 480 C 385.029 480, 389 479.760, 389 479.467 C 389 477.529, 383.082 468.005, 376.885 459.972 C 349.267 424.169, 289.015 377.289, 229.391 345.214 C 174.337 315.598, 107.002 293, 73.807 293 L 64.875 293 67.461 297.750 M 114 308.100 C 129.962 315.075, 167.467 333.489, 185.473 343.190 C 223.156 363.493, 256.392 383.474, 326.500 427.974 C 343.550 438.796, 358.175 447.985, 359 448.395 C 361.552 449.661, 342.146 431.259, 329.418 420.342 C 281.028 378.839, 223.714 346.261, 151.939 319.461 C 136.011 313.514, 105.034 302.989, 103.600 303.037 C 102.995 303.057, 107.675 305.336, 114 308.100 M 138 357.381 C 138 358.475, 167.190 379.358, 188.500 393.509 C 234.385 423.979, 271.813 443.686, 309.500 457.217 C 321.904 461.671, 343.724 467.452, 352 468.477 L 357.500 469.158 352.366 465.631 C 336.180 454.509, 310.279 441.086, 255.500 415.429 C 217.841 397.791, 168.431 373.415, 149.250 363.011 C 143.063 359.655, 138 357.121, 138 357.381 M 871.500 488.661 C 869.300 488.839, 861.650 489.455, 854.500 490.028 C 829.325 492.047, 794.254 497.807, 772 503.578 C 736.843 512.695, 712 525.084, 712 533.500 C 712 546.473, 762.301 564.645, 822.500 573.418 C 861.865 579.156, 921.264 580.964, 957.669 577.533 C 1012.411 572.373, 1060.952 561.336, 1088.810 547.713 C 1098.323 543.060, 1106 536.566, 1106 533.170 C 1106 524.600, 1074.772 510.525, 1036 501.620 C 993.375 491.830, 955.847 487.935, 906.500 488.182 C 889.450 488.267, 873.700 488.482, 871.500 488.661 M 875.500 498.095 C 822.804 501.988, 768.399 513.714, 742.444 526.774 C 732.074 531.991, 731.085 533.135, 734.570 535.876 C 743.194 542.660, 774.007 553.157, 802.500 559.016 C 839.474 566.621, 875.432 570.062, 917.957 570.068 C 964.206 570.074, 1004.481 565.706, 1044 556.400 C 1066.253 551.160, 1090.479 542.594, 1099.971 536.609 L 1105.381 533.198 1100.492 530.097 C 1094.960 526.589, 1079.652 520.428, 1067 516.618 C 1037.302 507.675, 996.781 500.715, 958.813 498.036 C 942.016 496.851, 891.854 496.886, 875.500 498.095 M 868 506.690 C 834.422 508.261, 799.921 514.193, 774.515 522.765 C 763.577 526.455, 763.547 526.474, 767.515 527.178 C 779.473 529.299, 812.994 527.874, 878 522.479 C 944.046 516.998, 959.013 515.990, 984.289 515.316 C 997.374 514.967, 1008.264 514.382, 1008.491 514.015 C 1009.252 512.783, 967.820 508.674, 938 507.025 C 921.222 506.096, 884.438 505.920, 868 506.690 M 180 525.661 C 117.964 527.511, 51.771 540.356, 17.062 557.279 C 7.822 561.784, -0 568.433, 0 571.780 C 0 574.787, 5.975 580.215, 13.806 584.323 C 43.311 599.799, 99.927 612.155, 159.368 616.090 C 179.396 617.416, 234.821 616.788, 252 615.040 C 294.546 610.712, 331.356 603.403, 358.862 593.821 C 379.854 586.509, 394 577.577, 394 571.635 C 394 556.200, 330.584 535.984, 258.777 528.528 C 243.778 526.971, 202.563 524.883, 193.500 525.221 C 190.750 525.323, 184.675 525.521, 180 525.661 M 163.500 535.039 C 114.150 537.097, 66.381 545.285, 29.648 557.981 C 18.330 561.893, 6.717 567.171, 2.566 570.289 C 0.721 571.675, 0.837 571.872, 5.066 574.551 C 23.761 586.391, 75.760 599.571, 125 604.950 C 153.461 608.059, 198.413 608.953, 227 606.979 C 283.614 603.069, 336.667 591.768, 364.714 577.644 C 373.366 573.287, 375.048 571.505, 372.398 569.502 C 360.711 560.667, 322.120 548.697, 285.500 542.548 C 247.356 536.143, 202.793 533.400, 163.500 535.039 M 176.500 541.674 C 148.005 543.081, 119.701 546.173, 90.057 551.118 C 68.807 554.662, 38.965 560.686, 38.094 561.606 C 37.767 561.951, 38.850 561.971, 40.500 561.649 C 44.659 560.839, 71.563 558.256, 89 556.993 C 119.422 554.790, 169.838 553.953, 209.986 554.986 C 247.847 555.959, 312.937 558.421, 327.368 559.425 C 331.146 559.688, 333.999 559.666, 333.709 559.375 C 332.349 558.015, 302.610 551.267, 284 548.096 C 251.550 542.566, 209.418 540.049, 176.500 541.674 M 678.336 548 C 678.336 552.125, 678.513 553.813, 678.728 551.750 C 678.944 549.688, 678.944 546.313, 678.728 544.250 C 678.513 542.188, 678.336 543.875, 678.336 548 M 1058 544.103 C 1046.754 545.573, 1018.241 547.935, 998.500 549.032 C 974.334 550.375, 895.424 550.376, 861.500 549.034 C 803.954 546.757, 786.187 545.987, 779.522 545.477 C 754.238 543.544, 813.970 556.601, 848.131 560.474 C 908.341 567.300, 974.507 563.020, 1050.383 547.392 C 1071.339 543.076, 1073.717 542.049, 1058 544.103 M 425.336 551 C 425.336 555.125, 425.513 556.813, 425.728 554.750 C 425.944 552.688, 425.944 549.313, 425.728 547.250 C 425.513 545.188, 425.336 546.875, 425.336 551 M 282.500 578.132 C 275.350 578.596, 250.600 580.548, 227.500 582.470 C 160.924 588.008, 146.093 589, 119.663 589.682 C 106.002 590.034, 95.427 590.640, 96.163 591.028 C 97.761 591.871, 120.099 594.349, 147 596.668 C 174.611 599.049, 237.283 599.045, 259.500 596.662 C 289.669 593.425, 309.823 589.428, 329.973 582.684 C 340.756 579.076, 342.043 578.424, 339.473 577.873 C 335.226 576.964, 297.875 577.133, 282.500 578.132 M 704.242 612.494 C 697.050 615.620, 698.179 623.175, 708.032 637.858 C 730.220 670.924, 786.225 717.749, 844.500 751.955 C 875.569 770.192, 920.008 790.466, 952 800.999 C 986.215 812.263, 1018.234 818.294, 1032.029 816.073 C 1042.747 814.347, 1044.332 810.563, 1038.870 799.742 C 1023.301 768.900, 963.147 715.791, 903 679.785 C 846.795 646.138, 781.990 620.100, 735.500 612.483 C 724.017 610.601, 708.585 610.607, 704.242 612.494 M 717.009 625.750 C 717.028 627.246, 723.036 636.942, 728.048 643.564 C 742.631 662.831, 770.307 688.606, 801.378 711.857 C 855.622 752.450, 922.386 786.117, 982.114 802.998 C 1001.729 808.541, 1015.603 811.107, 1029.390 811.740 L 1041.281 812.286 1038.617 807.393 C 1027.597 787.152, 993.352 753.474, 953.500 723.687 C 890.334 676.472, 805.460 637.183, 743.619 626.530 C 734.418 624.945, 716.993 624.434, 717.009 625.750 M 643.057 635.316 C 635.168 643.897, 635.058 644.073, 641.382 638 C 647.097 632.512, 652.937 625.834, 651.818 626.066 C 651.643 626.102, 647.700 630.265, 643.057 635.316 M 455 630.275 C 455 630.426, 458.488 633.914, 462.750 638.025 L 470.500 645.500 463.025 637.750 C 456.082 630.552, 455 629.544, 455 630.275 M 753.720 639.497 C 770.397 650.728, 799.461 665.630, 860 693.990 C 889.059 707.603, 946.914 736.011, 949.500 737.936 C 951.502 739.426, 968 748.092, 968 747.653 C 968 746.359, 928.518 718.072, 910.500 706.457 C 855.343 670.903, 801.489 645.887, 763.308 638.083 C 748.588 635.075, 747.410 635.248, 753.720 639.497 M 385 645.987 C 329.443 656.507, 252.271 690.545, 195 729.792 C 139.580 767.771, 93.118 813.070, 84.449 837.577 C 82.394 843.386, 82.780 845.155, 86.655 847.692 C 90.315 850.088, 108.754 850.045, 121.500 847.611 C 190.124 834.506, 274.304 794.907, 340.371 744.652 C 384.322 711.220, 417.938 676.055, 424.383 656.768 C 426.406 650.713, 425.294 647.438, 420.538 645.452 C 415.702 643.431, 397.014 643.712, 385 645.987 M 754.500 664.538 C 804.779 712.712, 862.877 749.206, 935.500 778.231 C 959.455 787.805, 1001.703 802.630, 1002.568 801.765 C 1002.728 801.606, 996.253 798.577, 988.179 795.034 C 980.106 791.492, 962.475 783.080, 949 776.342 C 901.068 752.374, 859.958 728.205, 775.078 674.093 C 761.096 665.179, 748.721 657.443, 747.578 656.901 C 746.435 656.359, 749.550 659.796, 754.500 664.538 M 393 657.639 C 391.625 657.841, 387.125 658.484, 383 659.068 C 344.227 664.559, 279.863 689.538, 228.537 719.013 C 186.447 743.185, 150.685 770.231, 118.889 801.938 C 96.584 824.182, 82.554 842.722, 86.160 845.187 C 89.158 847.236, 112.176 843.974, 133.988 838.408 C 204.447 820.431, 287.610 776.324, 349.500 724.108 C 372.835 704.421, 398.875 676.300, 405.289 663.863 L 408.054 658.500 405.777 657.850 C 403.324 657.149, 397.043 657.046, 393 657.639 M 357.500 670.104 C 289.281 689.227, 223.550 724.582, 158 777.408 C 135.383 795.636, 103.513 824.064, 116 814.873 C 174.889 771.527, 227.896 740.145, 340.500 681.960 C 369.383 667.036, 370.013 666.597, 357.500 670.104 M 546.750 674.737 C 549.638 674.939, 554.362 674.939, 557.250 674.737 C 560.138 674.535, 557.775 674.370, 552 674.370 C 546.225 674.370, 543.862 674.535, 546.750 674.737 M 371.071 686.118 C 354.453 694.973, 334.547 707.680, 302.657 729.793 C 226.904 782.322, 219.419 787.354, 190.555 805.162 C 181.785 810.573, 174.903 815, 175.262 815 C 176.872 815, 208.419 800.850, 227.500 791.570 C 272.151 769.853, 309.795 746.894, 340.297 722.775 C 354.002 711.938, 385.887 679.873, 382.818 680.015 C 382.643 680.023, 377.357 682.769, 371.071 686.118 M 647.138 682.552 C 639.463 692.309, 647.077 736.311, 664.519 783 C 691.108 854.170, 733.218 923.257, 781.793 975.401 C 806.582 1002.011, 832.587 1022, 842.418 1022 C 848.120 1022, 849.448 1019.370, 849.844 1007.299 C 851.102 968.890, 822.762 889.104, 784.913 824.500 C 747.094 759.946, 693.267 698.183, 661.500 682.890 C 653.903 679.233, 649.824 679.137, 647.138 682.552 M 658 705.007 C 658 749.532, 694.138 840.314, 738.804 907.992 C 770.671 956.278, 815.858 1005.329, 840.623 1018.519 L 845.500 1021.116 845.801 1014.340 C 846.180 1005.788, 843.779 990.235, 839.497 973.500 C 820.491 899.238, 776.734 817.063, 722.159 753.146 C 709.852 738.733, 686.017 715.359, 676 707.881 C 668.654 702.397, 661.107 698, 659.040 698 C 658.419 698, 658 700.823, 658 705.007 M 481.069 700.646 C 470.324 704.408, 456.889 714.844, 435.144 736.321 C 381.172 789.627, 331.421 871.282, 305.132 949.709 C 289.221 997.174, 284.416 1035.871, 293.808 1040.897 C 296.742 1042.467, 304.204 1039.919, 312.350 1034.565 C 349.722 1010.004, 401.084 946.929, 437.838 880.457 C 452.300 854.302, 467.815 819.112, 477.955 789.469 C 493.972 742.644, 498.665 705.172, 489.150 700.080 C 486.643 698.739, 486.488 698.750, 481.069 700.646 M 569.500 711.954 C 559.309 716.169, 545.299 751.372, 537.015 793.583 C 523.362 863.148, 522.369 935.253, 534.103 1005 C 543.270 1059.484, 560.728 1105, 572.460 1105 C 580.994 1105, 592.951 1079.359, 602.491 1040.604 C 622.074 961.047, 622.957 866.577, 604.885 784.500 C 596.845 747.987, 584.773 718.492, 575.571 712.880 C 572.144 710.790, 572.268 710.809, 569.500 711.954 M 474.485 719.119 C 446.502 733.995, 398.578 788.379, 363.545 845.015 C 331.135 897.408, 304.783 961.704, 295.564 1010.878 C 293.542 1021.664, 292.416 1038.521, 293.666 1039.294 C 298.499 1042.281, 336.005 1009.095, 360.113 980.500 C 406.611 925.349, 445.672 855.397, 467.326 788.500 C 476.750 759.384, 482.764 728.164, 480.605 719.561 C 479.826 716.460, 479.528 716.438, 474.485 719.119 M 681 723.613 C 681 724.763, 689.946 740.846, 697.345 753 C 706.701 768.367, 719.601 787.590, 743.984 822.500 C 768.834 858.077, 794.929 897.136, 806.018 915.350 C 810.590 922.859, 814.482 928.852, 814.667 928.667 C 814.852 928.482, 812.701 922.968, 809.887 916.415 C 779.729 846.187, 741.506 782.994, 707.323 746.851 C 694.090 732.860, 681 721.304, 681 723.613 M 569.349 734.257 C 558.532 750.568, 547.345 789.624, 541.066 833 C 529.091 915.722, 535.751 1009.693, 558.216 1075 C 562.713 1088.072, 570.689 1104.259, 572.373 1103.731 C 573.962 1103.232, 579.385 1092.953, 583.046 1083.500 C 593.979 1055.273, 602.439 1013.230, 607.193 963.500 C 609.071 943.848, 608.745 887.585, 606.624 865.500 C 602.018 817.543, 593.354 776.587, 581.948 748.856 C 578.954 741.576, 573.079 730.994, 572.039 731.007 C 571.742 731.011, 570.532 732.473, 569.349 734.257 M 670.637 747.642 C 684.347 797.169, 709.035 849.833, 740.653 897 C 757.205 921.692, 778.418 949.036, 801.655 975.635 C 817.980 994.322, 819.952 995.794, 809.512 981.500 C 795.396 962.172, 772.524 927.303, 757.364 902 C 737.189 868.325, 722.046 840.696, 688.033 775.500 C 677.990 756.250, 669.415 740.114, 668.979 739.642 C 668.542 739.171, 669.288 742.771, 670.637 747.642 M 438.214 756.705 C 387.974 810.787, 352.749 868.446, 323.486 944.500 C 315.897 964.224, 303.856 999.067, 304.235 1000.206 C 304.400 1000.700, 306.953 995.568, 309.908 988.802 C 318.506 969.116, 337.963 930.241, 350.601 907.500 C 370.325 872.005, 390.424 838.921, 430.406 776.136 C 440.691 759.986, 448.911 746.578, 448.674 746.341 C 448.437 746.103, 443.730 750.767, 438.214 756.705 M 463.756 756.684 C 450.959 777.399, 439.176 800.428, 415.498 851 C 389.983 905.496, 365.383 954.794, 358.237 965.750 C 357.430 966.987, 357.053 968, 357.398 968 C 358.499 968, 377.970 941.178, 391.565 920.935 C 432.046 860.657, 458.814 804.494, 467.493 761.629 C 468.926 754.553, 469.896 748.563, 469.650 748.317 C 469.404 748.070, 466.751 751.836, 463.756 756.684 M 577.858 774.550 C 577.483 803.633, 578.741 828.846, 583.023 878 C 586.877 922.249, 588.935 951.943, 590.143 980.732 C 590.817 996.810, 591.470 1009.860, 591.594 1009.732 C 592.007 1009.307, 594.953 983.735, 596.576 966.500 C 598.736 943.561, 599.625 879.221, 598.079 857.780 C 596.589 837.121, 593.803 817.292, 589.910 799.635 C 586.938 786.157, 580.769 766.469, 578.917 764.550 C 578.359 763.972, 577.945 767.883, 577.858 774.550 M 556.185 785.167 C 546.335 825.464, 542.003 862.400, 542.014 906 C 542.022 938.373, 544.712 971.787, 550.063 1006 C 552.867 1023.930, 561.156 1066.178, 561.752 1065.581 C 562.030 1065.304, 561.749 1060.897, 561.129 1055.788 C 553.991 996.968, 553.297 930.263, 558.573 810.249 C 559.449 790.311, 560.004 773.511, 559.805 772.916 C 559.607 772.321, 557.978 777.834, 556.185 785.167" stroke="none" fill="#f1f1f1" fill-rule="evenodd"/></svg>