<svg xmlns="http://www.w3.org/2000/svg" width="1106" height="2400" viewBox="0 0 1106 2400" version="1.1"><path d="M 532.239 2.250 C 527.882 7.667, 520.100 27.663, 514.624 47.515 C 498.109 107.389, 493.047 184.257, 501.016 254.193 C 506.510 302.418, 517.920 347.650, 529.630 367.632 C 533.668 374.522, 534.221 374.589, 537.835 368.624 C 551.125 346.696, 562.813 298.346, 568.685 241 C 571.070 217.707, 571.060 157.118, 568.666 134 C 562.722 76.574, 549.960 25.604, 535.931 3.250 C 534.315 0.675, 533.651 0.495, 532.239 2.250 M 544.471 43 C 544.738 46.025, 545.629 55.700, 546.450 64.500 C 552.009 124.099, 552.299 188.967, 547.473 294 C 545.551 335.846, 545.545 335.686, 548.624 324.500 C 552.420 310.708, 557.733 283.229, 559.951 265.919 C 563.310 239.698, 564.306 218.732, 563.678 187.500 C 562.791 143.402, 558.870 109.902, 548.424 57.158 C 544.574 37.721, 543.739 34.731, 544.471 43 M 807.126 67.264 C 795.072 73.425, 763.826 102.922, 743.845 127 C 697.567 182.770, 660.123 250.237, 638.674 316.500 C 629.222 345.702, 623.236 376.836, 625.410 385.496 C 626.216 388.707, 627.980 388.328, 636 383.217 C 664.946 364.770, 709.645 313.028, 742.455 259.985 C 774.896 207.540, 801.213 143.308, 810.457 94.013 C 812.403 83.634, 813.653 64.995, 812.402 65.014 C 811.906 65.022, 809.532 66.034, 807.126 67.264 M 260 91.401 C 260 95.471, 260.878 103.908, 261.951 110.151 C 271.088 163.287, 302.680 236.860, 341.540 295.500 C 367.086 334.049, 398.235 370.617, 423.624 391.864 C 432.607 399.382, 444.235 407, 446.727 407 C 448.337 407, 448.440 396.379, 446.937 385.322 C 445.505 374.785, 440.003 352.075, 435.473 338 C 414.044 271.420, 378.232 205.848, 333.086 150.528 C 319.854 134.314, 294.433 108.164, 282.526 98.517 C 274.226 91.793, 262.547 84.009, 260.750 84.003 C 260.337 84.001, 260 87.330, 260 91.401 M 514.149 95.837 C 514.067 96.572, 513.326 102.647, 512.502 109.337 C 507.678 148.505, 505.531 212.609, 507.919 246.168 C 510.564 283.339, 517.682 319.812, 525.784 337.708 L 527.500 341.500 528.032 330.500 C 529.085 308.714, 527.262 275.699, 521.021 203.500 C 519 180.124, 516.467 140.862, 515.117 112 C 514.667 102.375, 514.232 95.102, 514.149 95.837 M 794.500 119.682 C 770.575 173.876, 739.677 228.232, 675.594 328.864 C 665.309 345.014, 657.088 358.421, 657.324 358.658 C 657.843 359.176, 677.598 337.859, 688.120 325.426 C 726.105 280.545, 757.756 225.014, 783.272 158.483 C 791.207 137.793, 802.159 105.976, 801.758 104.775 C 801.598 104.294, 798.332 111.002, 794.500 119.682 M 294.668 121 C 332.813 172.680, 365.350 227.885, 421.973 337 C 429.822 352.125, 436.626 364.915, 437.094 365.421 C 438.429 366.870, 434.449 353.223, 427.462 332.396 C 403.950 262.308, 363.716 196.401, 301.456 125.987 C 288.056 110.832, 286.105 109.399, 294.668 121 M 737.870 150.626 C 695.392 207.912, 662.185 267.443, 646.459 314.504 C 641.610 329.015, 635.244 355.577, 636.350 356.683 C 636.842 357.176, 645.125 344.031, 652.219 331.500 C 659.225 319.123, 674.294 288.618, 690.502 254 C 716.017 199.504, 740.617 150.206, 747.763 139.250 C 748.570 138.012, 748.947 137, 748.602 137 C 748.257 137, 743.427 143.132, 737.870 150.626 M 291 176.217 C 291 179.181, 320.187 240.768, 330.492 259.551 C 352.764 300.142, 377.965 336.328, 399.979 359.326 C 411.360 371.215, 423.872 382.461, 424.747 381.586 C 425.715 380.618, 409.141 352.013, 396.585 332.980 C 389.865 322.795, 375.447 301.659, 364.545 286.013 C 335.483 244.305, 317.780 217.970, 304.044 196.010 C 291.755 176.363, 291 175.217, 291 176.217 M 1000.761 260.534 C 980.125 263.347, 945.719 273.317, 917 284.806 C 846.442 313.031, 779.718 356.088, 730.896 404.900 C 714.295 421.497, 705.502 432.096, 700.534 441.499 L 697.893 446.498 701.074 447.149 C 708.919 448.753, 733.243 444.900, 755.639 438.504 C 824.969 418.706, 900.493 378.090, 959.500 328.871 C 990.087 303.358, 1025.184 263.264, 1019.874 259.901 C 1018.048 258.744, 1012.555 258.926, 1000.761 260.534 M 983 295.112 C 967.073 307.182, 929.180 332.197, 904 347.264 C 868.696 368.389, 834.661 387.034, 772.203 419.467 C 754.439 428.691, 740.078 436.411, 740.289 436.623 C 740.885 437.218, 766.075 429.654, 780 424.699 C 847.707 400.607, 910.279 361.826, 978.908 301.420 C 990.062 291.602, 995.035 286.836, 993.872 287.077 C 993.668 287.120, 988.775 290.735, 983 295.112 M 923 292.927 C 856.841 321.113, 799.845 353.968, 760.198 386.775 C 750.078 395.150, 726.012 419.241, 723.986 423.025 C 723.036 424.802, 723.857 424.593, 730 421.500 C 748.724 412.071, 769.922 398.315, 831.500 355.636 C 872.450 327.254, 892.143 314.148, 915.750 299.569 C 923.587 294.728, 930 290.595, 930 290.384 C 930 289.905, 930.643 289.671, 923 292.927 M 67.461 297.750 C 72.644 307.269, 80.761 316.880, 98.940 335.020 C 137.477 373.475, 183.275 406.121, 237 433.433 C 290.406 460.582, 350.108 480, 380.175 480 C 385.029 480, 389 479.760, 389 479.467 C 389 477.529, 383.082 468.005, 376.885 459.972 C 349.267 424.169, 289.015 377.289, 229.391 345.214 C 174.337 315.598, 107.002 293, 73.807 293 L 64.875 293 67.461 297.750 M 114 308.100 C 129.962 315.075, 167.467 333.489, 185.473 343.190 C 223.156 363.493, 256.392 383.474, 326.500 427.974 C 343.550 438.796, 358.175 447.985, 359 448.395 C 361.552 449.661, 342.146 431.259, 329.418 420.342 C 281.028 378.839, 223.714 346.261, 151.939 319.461 C 136.011 313.514, 105.034 302.989, 103.600 303.037 C 102.995 303.057, 107.675 305.336, 114 308.100 M 138 357.381 C 138 358.475, 167.190 379.358, 188.500 393.509 C 234.385 423.979, 271.813 443.686, 309.500 457.217 C 321.904 461.671, 343.724 467.452, 352 468.477 L 357.500 469.158 352.366 465.631 C 336.180 454.509, 310.279 441.086, 255.500 415.429 C 217.841 397.791, 168.431 373.415, 149.250 363.011 C 143.063 359.655, 138 357.121, 138 357.381 M 547.348 394.342 C 546.206 395.529, 545.249 396.900, 545.221 397.388 C 545.193 397.877, 544.782 398.552, 544.308 398.888 C 543.833 399.225, 542.624 401.525, 541.620 404 C 540.616 406.475, 539.366 409.322, 538.841 410.326 C 538.317 411.331, 537.633 414.307, 537.321 416.940 L 536.754 421.727 551.627 421.782 C 560.301 421.814, 569.557 422.438, 573.835 423.280 L 581.169 424.723 580.656 419.612 C 579.475 407.855, 577.903 401.823, 575.219 398.750 C 574.378 397.788, 574.040 397, 574.467 397 C 574.895 397, 574.685 396.325, 574 395.500 C 573.315 394.675, 572.417 394, 572.003 394 C 570.562 394, 563.738 400.894, 561.487 404.623 L 559.220 408.379 556.210 402.440 C 554.555 399.173, 552.351 395.529, 551.313 394.342 L 549.425 392.184 547.348 394.342 M 515.745 397.750 C 514.295 399.372, 511.338 407.197, 510.510 411.602 C 510.314 412.646, 510.119 413.651, 510.077 413.835 C 510.034 414.019, 507.138 411.656, 503.639 408.585 C 500.141 405.513, 496.781 403, 496.174 403 C 493.639 403, 492.591 407.709, 492.614 419 C 492.627 425.325, 492.883 431.400, 493.182 432.500 C 493.795 434.747, 495.778 434.683, 500.452 432.266 C 505.670 429.568, 519.418 425.284, 527.078 423.969 C 531.160 423.269, 534.862 422.380, 535.303 421.994 C 536.282 421.141, 531.695 410.821, 529.543 409.036 C 528.694 408.331, 528 407.231, 528 406.590 C 528 405.444, 518.966 396, 517.871 396 C 517.562 396, 516.606 396.788, 515.745 397.750 M 596.817 404.802 C 594.242 406.836, 591.100 409.850, 589.836 411.500 C 588.571 413.150, 587.191 414.650, 586.768 414.833 C 586.346 415.017, 586 415.804, 586 416.583 C 586 417.363, 585.602 418, 585.117 418 C 584.631 418, 584.007 418.788, 583.730 419.750 C 583.453 420.712, 582.926 422.227, 582.558 423.115 C 582.015 424.426, 583.451 425.218, 590.195 427.324 C 612.525 434.299, 633.473 448.116, 647.927 465.402 L 654.354 473.089 656.641 470.294 C 657.899 468.757, 658.944 466.938, 658.964 466.250 C 658.984 465.563, 659.338 465, 659.752 465 C 660.707 465, 665.985 453.888, 666.489 450.814 C 667.709 443.381, 667.748 443.495, 664 443.568 C 660.057 443.645, 651.944 444.917, 650.771 445.641 C 649.191 446.618, 647.980 444.905, 648.959 443.078 C 649.489 442.087, 650.095 439.709, 650.306 437.793 C 650.517 435.878, 650.988 433.828, 651.352 433.239 C 651.716 432.650, 651.568 430.995, 651.023 429.561 C 650.184 427.355, 649.607 427.052, 647.266 427.590 C 642.224 428.749, 633.578 433.224, 627.789 437.670 L 622.079 442.056 623.546 437.278 C 626.679 427.079, 626.268 410, 622.890 410 C 620.780 410, 615.190 412.901, 612.913 415.178 C 609.555 418.536, 607.023 419.398, 606.915 417.219 C 606.436 407.475, 604.708 400.956, 602.629 401.052 C 602.008 401.081, 599.393 402.768, 596.817 404.802 M 465.617 418.811 C 465.341 419.258, 465.282 423.494, 465.486 428.225 L 465.857 436.827 460.557 434.483 C 457.642 433.194, 453.624 431.832, 451.628 431.458 L 448 430.777 448 435.420 C 448 442.635, 453.720 457.683, 457.418 460.196 C 457.981 460.578, 458.201 461.132, 457.907 461.427 C 457.612 461.721, 454.196 460.628, 450.314 458.997 C 445.222 456.857, 440.822 455.844, 434.514 455.359 L 425.772 454.687 426.477 458.094 C 426.865 459.967, 428.273 463.931, 429.605 466.902 C 430.938 469.874, 431.784 472.550, 431.484 472.849 C 431.184 473.149, 428.140 473.448, 424.720 473.515 C 413.512 473.733, 413.702 473.675, 414.449 476.654 C 415.844 482.213, 430.085 499, 433.405 499 C 434.258 499, 436.235 496.199, 438.018 492.462 C 448.582 470.328, 467.900 450.105, 491.574 436.399 C 493.321 435.387, 492.985 434.815, 487.466 429.399 C 479.494 421.575, 467.501 415.763, 465.617 418.811 M 669.659 468.674 C 669.294 469.039, 667.454 469.497, 665.570 469.690 C 662.146 470.041, 655 472.613, 655 473.494 C 655 473.751, 656.514 476.332, 658.365 479.231 C 664.176 488.331, 668.957 498.602, 673.519 511.785 C 673.866 512.787, 674.677 512.701, 677.203 511.395 C 681.118 509.370, 691.883 499.286, 693.104 496.500 C 693.586 495.400, 694.714 493.487, 695.612 492.250 C 697.198 490.063, 697.143 489.958, 693.642 488.495 C 691.662 487.667, 687.444 486.796, 684.270 486.559 C 681.097 486.323, 678.362 486.100, 678.193 486.064 C 677.548 485.929, 681.563 479.460, 682.771 478.689 C 683.470 478.242, 683.781 477.455, 683.462 476.939 C 683.143 476.422, 683.304 476, 683.820 476 C 685.005 476, 687.483 470.149, 686.650 469.317 C 685.779 468.445, 670.467 467.866, 669.659 468.674 M 875.500 498.095 C 822.804 501.988, 768.399 513.714, 742.444 526.774 C 732.074 531.991, 731.085 533.135, 734.570 535.876 C 743.194 542.660, 774.007 553.157, 802.500 559.016 C 839.474 566.621, 875.432 570.062, 917.957 570.068 C 964.206 570.074, 1004.481 565.706, 1044 556.400 C 1066.253 551.160, 1090.479 542.594, 1099.971 536.609 L 1105.381 533.198 1100.492 530.097 C 1094.960 526.589, 1079.652 520.428, 1067 516.618 C 1037.302 507.675, 996.781 500.715, 958.813 498.036 C 942.016 496.851, 891.854 496.886, 875.500 498.095 M 417.500 499.978 C 416.400 500.388, 414.932 500.510, 414.237 500.250 C 413.543 499.989, 412.376 500.273, 411.645 500.879 C 410.914 501.486, 410.062 501.728, 409.751 501.418 C 409.292 500.959, 403.531 503.347, 402.136 504.575 C 401.398 505.224, 406.026 511.702, 409.459 514.827 C 411.407 516.599, 413 518.431, 413 518.899 C 413 519.367, 411.538 520.089, 409.750 520.502 C 407.962 520.916, 405.995 521.374, 405.377 521.520 C 402.835 522.121, 397 525.287, 397 526.066 C 397 528.481, 411.560 539.715, 415.718 540.507 C 416.698 540.694, 417.613 540.938, 417.750 541.048 C 417.887 541.159, 418.450 541.362, 419 541.500 C 419.550 541.638, 420.113 541.840, 420.250 541.949 C 420.387 542.059, 421.481 542.333, 422.680 542.557 C 424.661 542.929, 424.917 542.441, 425.485 537.233 C 426.495 527.955, 428.848 516.724, 431.432 508.849 C 432.922 504.310, 433.489 501.135, 432.916 500.545 C 431.781 499.374, 420.259 498.951, 417.500 499.978 M 868 506.690 C 834.422 508.261, 799.921 514.193, 774.515 522.765 C 763.577 526.455, 763.547 526.474, 767.515 527.178 C 779.473 529.299, 812.994 527.874, 878 522.479 C 944.046 516.998, 959.013 515.990, 984.289 515.316 C 997.374 514.967, 1008.264 514.382, 1008.491 514.015 C 1009.252 512.783, 967.820 508.674, 938 507.025 C 921.222 506.096, 884.438 505.920, 868 506.690 M 675.326 513.746 C 674.435 514.337, 674.491 515.967, 675.557 520.512 C 680.597 541.983, 679.493 563.087, 671.922 590 C 671.569 591.255, 672.969 591.495, 680.500 591.467 C 685.450 591.450, 690.625 591.150, 692 590.802 C 698.645 589.121, 702.502 587.349, 702.791 585.845 C 703.109 584.193, 696.648 576.888, 692.097 573.752 L 689.693 572.097 692.097 571.157 C 703.041 566.879, 706.396 565.313, 706.723 564.331 C 707.212 562.864, 700.805 556.640, 696.820 554.710 C 693.930 553.310, 693.871 553.176, 695.870 552.541 C 697.041 552.170, 698 551.446, 698 550.933 C 698 550.420, 698.800 550, 699.777 550 C 700.755 550, 703.042 548.641, 704.861 546.980 L 708.168 543.959 705.223 541.230 C 703.603 539.728, 699.965 537.694, 697.139 536.709 C 694.312 535.724, 692 534.517, 692 534.027 C 692 533.537, 693.462 532.111, 695.250 530.859 C 697.038 529.606, 700.300 526.873, 702.500 524.784 C 706.338 521.140, 706.409 520.962, 704.250 520.377 C 703.013 520.041, 702 519.406, 702 518.966 C 702 516.261, 678.478 511.658, 675.326 513.746 M 163.500 535.039 C 114.150 537.097, 66.381 545.285, 29.648 557.981 C 18.330 561.893, 6.717 567.171, 2.566 570.289 C 0.721 571.675, 0.837 571.872, 5.066 574.551 C 23.761 586.391, 75.760 599.571, 125 604.950 C 153.461 608.059, 198.413 608.953, 227 606.979 C 283.614 603.069, 336.667 591.768, 364.714 577.644 C 373.366 573.287, 375.048 571.505, 372.398 569.502 C 360.711 560.667, 322.120 548.697, 285.500 542.548 C 247.356 536.143, 202.793 533.400, 163.500 535.039 M 176.500 541.674 C 148.005 543.081, 119.701 546.173, 90.057 551.118 C 68.807 554.662, 38.965 560.686, 38.094 561.606 C 37.767 561.951, 38.850 561.971, 40.500 561.649 C 44.659 560.839, 71.563 558.256, 89 556.993 C 119.422 554.790, 169.838 553.953, 209.986 554.986 C 247.847 555.959, 312.937 558.421, 327.368 559.425 C 331.146 559.688, 333.999 559.666, 333.709 559.375 C 332.349 558.015, 302.610 551.267, 284 548.096 C 251.550 542.566, 209.418 540.049, 176.500 541.674 M 1058 544.103 C 1046.754 545.573, 1018.241 547.935, 998.500 549.032 C 974.334 550.375, 895.424 550.376, 861.500 549.034 C 803.954 546.757, 786.187 545.987, 779.522 545.477 C 754.238 543.544, 813.970 556.601, 848.131 560.474 C 908.341 567.300, 974.507 563.020, 1050.383 547.392 C 1071.339 543.076, 1073.717 542.049, 1058 544.103 M 415.500 546.205 C 407.463 549.048, 396 556.089, 396 558.183 C 396 559.462, 400.262 562.956, 401.151 562.406 C 401.618 562.118, 402 562.328, 402 562.874 C 402 563.797, 404.494 565.007, 406.286 564.952 C 406.718 564.939, 407.762 565.620, 408.607 566.464 C 409.452 567.309, 410.818 568, 411.643 568 C 413.484 568, 412.260 569.327, 407.014 573.019 C 402.711 576.047, 400.392 578.327, 399.787 580.125 C 398.669 583.446, 411.950 587.776, 423.323 587.799 C 427.075 587.806, 430.374 588.041, 430.654 588.321 C 430.934 588.600, 429.603 589.569, 427.697 590.474 C 421.042 593.632, 407.499 609.899, 409.697 612.097 C 410.900 613.300, 414.004 614.056, 421.199 614.897 C 424.333 615.264, 427.194 615.861, 427.558 616.224 C 428.115 616.782, 424.838 622.408, 423.028 624 C 422.074 624.839, 420 630.004, 420 631.540 C 420 632.716, 421.536 632.911, 428.250 632.583 C 440.362 631.993, 443.396 631.296, 451.181 627.316 C 451.555 627.124, 452.187 627.494, 452.585 628.138 C 453.037 628.869, 452.876 629.041, 452.155 628.595 C 451.491 628.186, 451 628.479, 451 629.286 C 451 630.058, 450.048 631.547, 448.885 632.595 C 446.901 634.382, 445.283 637.369, 445.205 639.388 C 445.186 639.877, 444.756 640.552, 444.249 640.888 C 442.959 641.745, 440.909 648.043, 441.571 649.115 C 441.872 649.602, 441.614 650, 440.999 650 C 440.317 650, 440.001 651.465, 440.190 653.750 C 440.487 657.341, 440.648 657.494, 444 657.359 C 448.225 657.190, 451.197 656.500, 453.869 655.070 C 454.969 654.481, 456.847 654, 458.043 654 C 459.910 654, 460.120 654.384, 459.533 656.725 C 457.926 663.126, 456.939 670.093, 457.509 671.014 C 458.394 672.446, 462.563 671.230, 470 667.371 C 476.701 663.893, 484.404 657.617, 483.827 656.103 C 483.647 655.632, 479.840 652.496, 475.366 649.136 C 458.986 636.832, 444.309 618.329, 436.124 599.665 C 429.452 584.453, 425 564.285, 425 549.276 C 425 543.082, 424.650 542.969, 415.500 546.205 M 282.500 578.132 C 275.350 578.596, 250.600 580.548, 227.500 582.470 C 160.924 588.008, 146.093 589, 119.663 589.682 C 106.002 590.034, 95.427 590.640, 96.163 591.028 C 97.761 591.871, 120.099 594.349, 147 596.668 C 174.611 599.049, 237.283 599.045, 259.500 596.662 C 289.669 593.425, 309.823 589.428, 329.973 582.684 C 340.756 579.076, 342.043 578.424, 339.473 577.873 C 335.226 576.964, 297.875 577.133, 282.500 578.132 M 669.924 594.699 C 667.472 601.149, 660.352 614.132, 655.320 621.328 C 652.309 625.633, 650.086 629.782, 650.380 630.548 C 650.674 631.314, 652.171 632.241, 653.707 632.608 C 655.243 632.975, 657.043 633.702, 657.706 634.224 C 658.370 634.745, 659.351 634.901, 659.887 634.570 C 660.423 634.238, 661.163 634.455, 661.532 635.052 C 661.901 635.648, 662.817 635.900, 663.569 635.612 C 664.321 635.323, 665.179 635.481, 665.477 635.962 C 666.013 636.830, 677.464 637.101, 679.631 636.297 C 680.949 635.808, 680.046 630.790, 677.954 626.976 C 677.207 625.614, 676.496 623.898, 676.374 623.162 C 676.251 622.427, 675.372 620.964, 674.421 619.912 C 672.730 618.044, 672.877 618, 680.763 618 C 685.203 618, 689.548 617.727, 690.418 617.393 C 692.597 616.557, 692.402 613.325, 690.051 611.312 C 688.979 610.394, 688.311 609.305, 688.567 608.892 C 689.210 607.851, 676.963 595, 675.327 595 C 674.597 595, 674 594.598, 674 594.107 C 674 593.616, 673.311 592.949, 672.468 592.626 C 671.435 592.230, 670.607 592.904, 669.924 594.699 M 717.009 625.750 C 717.028 627.246, 723.036 636.942, 728.048 643.564 C 742.631 662.831, 770.307 688.606, 801.378 711.857 C 855.622 752.450, 922.386 786.117, 982.114 802.998 C 1001.729 808.541, 1015.603 811.107, 1029.390 811.740 L 1041.281 812.286 1038.617 807.393 C 1027.597 787.152, 993.352 753.474, 953.500 723.687 C 890.334 676.472, 805.460 637.183, 743.619 626.530 C 734.418 624.945, 716.993 624.434, 717.009 625.750 M 639.885 639.371 C 635.147 643.842, 627.947 649.750, 623.885 652.500 C 619.823 655.250, 616.184 657.942, 615.797 658.483 C 615.014 659.578, 624.712 669, 626.622 669 C 627.288 669, 627.989 669.467, 628.179 670.038 C 628.370 670.609, 631.511 672.160, 635.160 673.484 C 641.736 675.871, 641.800 675.875, 642.324 673.868 C 642.615 672.754, 642.706 668.279, 642.525 663.922 C 642.345 659.565, 642.320 656, 642.471 656 C 642.622 656, 644.802 656.910, 647.315 658.021 C 649.829 659.133, 653.711 660.298, 655.943 660.610 C 659.758 661.144, 660 661.028, 660 658.670 C 660 654.684, 656.936 643.661, 655.321 641.838 C 654.511 640.923, 653.748 639.492, 653.626 638.656 C 653.503 637.820, 652.300 635.810, 650.951 634.189 L 648.500 631.242 639.885 639.371 M 753.720 639.497 C 770.397 650.728, 799.461 665.630, 860 693.990 C 889.059 707.603, 946.914 736.011, 949.500 737.936 C 951.502 739.426, 968 748.092, 968 747.653 C 968 746.359, 928.518 718.072, 910.500 706.457 C 855.343 670.903, 801.489 645.887, 763.308 638.083 C 748.588 635.075, 747.410 635.248, 753.720 639.497 M 754.500 664.538 C 804.779 712.712, 862.877 749.206, 935.500 778.231 C 959.455 787.805, 1001.703 802.630, 1002.568 801.765 C 1002.728 801.606, 996.253 798.577, 988.179 795.034 C 980.106 791.492, 962.475 783.080, 949 776.342 C 901.068 752.374, 859.958 728.205, 775.078 674.093 C 761.096 665.179, 748.721 657.443, 747.578 656.901 C 746.435 656.359, 749.550 659.796, 754.500 664.538 M 393 657.639 C 391.625 657.841, 387.125 658.484, 383 659.068 C 344.227 664.559, 279.863 689.538, 228.537 719.013 C 186.447 743.185, 150.685 770.231, 118.889 801.938 C 96.584 824.182, 82.554 842.722, 86.160 845.187 C 89.158 847.236, 112.176 843.974, 133.988 838.408 C 204.447 820.431, 287.610 776.324, 349.500 724.108 C 372.835 704.421, 398.875 676.300, 405.289 663.863 L 408.054 658.500 405.777 657.850 C 403.324 657.149, 397.043 657.046, 393 657.639 M 484.879 663.250 C 483.434 668.999, 483.116 680.907, 484.293 685.250 C 485.346 689.138, 487.338 688.729, 495.168 683.016 C 498.926 680.274, 502.016 678.137, 502.035 678.266 C 503.316 686.874, 505.223 694.652, 506.323 695.752 C 507.570 696.998, 508.541 696.420, 513.722 691.343 C 519.276 685.901, 525.969 676.055, 525.991 673.295 C 525.996 672.633, 524.313 671.783, 522.250 671.407 C 516.538 670.366, 502.299 665.172, 494.775 661.385 C 491.076 659.523, 487.634 658, 487.125 658 C 486.616 658, 485.605 660.362, 484.879 663.250 M 604 663.670 C 585.483 671.957, 564.204 675.876, 545 674.538 C 526.714 673.264, 528.458 672.999, 528.796 677 C 529.471 684.993, 532.341 695.146, 535.200 699.654 L 538.225 704.424 542.168 699.962 C 544.336 697.508, 546.812 694.038, 547.669 692.250 C 548.527 690.462, 549.550 689, 549.943 689 C 550.336 689, 551.748 691.330, 553.079 694.178 C 555.740 699.870, 558.660 704, 560.025 704 C 561.207 704, 566.911 695.626, 567.293 693.328 C 567.461 692.323, 568.121 690.549, 568.760 689.388 C 570.143 686.875, 571.016 682.762, 571.901 674.583 C 572.042 673.282, 573.349 674.769, 573.606 676.523 C 574.402 681.943, 587.985 698, 591.774 698 C 594.012 698, 596.366 693.214, 597.434 686.491 C 597.780 684.316, 598.402 682.198, 598.818 681.782 C 599.233 681.367, 601.758 683.033, 604.428 685.485 C 607.099 687.937, 609.670 689.704, 610.142 689.412 C 610.614 689.121, 611 689.359, 611 689.941 C 611 691.448, 614.986 691.261, 615.069 689.750 C 615.107 689.063, 615.389 687.150, 615.696 685.500 C 616.382 681.810, 616.439 668.231, 615.779 665.500 C 614.209 659, 614.377 659.026, 604 663.670 M 357.500 670.104 C 289.281 689.227, 223.550 724.582, 158 777.408 C 135.383 795.636, 103.513 824.064, 116 814.873 C 174.889 771.527, 227.896 740.145, 340.500 681.960 C 369.383 667.036, 370.013 666.597, 357.500 670.104 M 371.071 686.118 C 354.453 694.973, 334.547 707.680, 302.657 729.793 C 226.904 782.322, 219.419 787.354, 190.555 805.162 C 181.785 810.573, 174.903 815, 175.262 815 C 176.872 815, 208.419 800.850, 227.500 791.570 C 272.151 769.853, 309.795 746.894, 340.297 722.775 C 354.002 711.938, 385.887 679.873, 382.818 680.015 C 382.643 680.023, 377.357 682.769, 371.071 686.118 M 658 705.007 C 658 749.532, 694.138 840.314, 738.804 907.992 C 770.671 956.278, 815.858 1005.329, 840.623 1018.519 L 845.500 1021.116 845.801 1014.340 C 846.180 1005.788, 843.779 990.235, 839.497 973.500 C 820.491 899.238, 776.734 817.063, 722.159 753.146 C 709.852 738.733, 686.017 715.359, 676 707.881 C 668.654 702.397, 661.107 698, 659.040 698 C 658.419 698, 658 700.823, 658 705.007 M 474.485 719.119 C 446.502 733.995, 398.578 788.379, 363.545 845.015 C 331.135 897.408, 304.783 961.704, 295.564 1010.878 C 293.542 1021.664, 292.416 1038.521, 293.666 1039.294 C 298.499 1042.281, 336.005 1009.095, 360.113 980.500 C 406.611 925.349, 445.672 855.397, 467.326 788.500 C 476.750 759.384, 482.764 728.164, 480.605 719.561 C 479.826 716.460, 479.528 716.438, 474.485 719.119 M 681 723.613 C 681 724.763, 689.946 740.846, 697.345 753 C 706.701 768.367, 719.601 787.590, 743.984 822.500 C 768.834 858.077, 794.929 897.136, 806.018 915.350 C 810.590 922.859, 814.482 928.852, 814.667 928.667 C 814.852 928.482, 812.701 922.968, 809.887 916.415 C 779.729 846.187, 741.506 782.994, 707.323 746.851 C 694.090 732.860, 681 721.304, 681 723.613 M 569.349 734.257 C 558.532 750.568, 547.345 789.624, 541.066 833 C 529.091 915.722, 535.751 1009.693, 558.216 1075 C 562.713 1088.072, 570.689 1104.259, 572.373 1103.731 C 573.962 1103.232, 579.385 1092.953, 583.046 1083.500 C 593.979 1055.273, 602.439 1013.230, 607.193 963.500 C 609.071 943.848, 608.745 887.585, 606.624 865.500 C 602.018 817.543, 593.354 776.587, 581.948 748.856 C 578.954 741.576, 573.079 730.994, 572.039 731.007 C 571.742 731.011, 570.532 732.473, 569.349 734.257 M 670.637 747.642 C 684.347 797.169, 709.035 849.833, 740.653 897 C 757.205 921.692, 778.418 949.036, 801.655 975.635 C 817.980 994.322, 819.952 995.794, 809.512 981.500 C 795.396 962.172, 772.524 927.303, 757.364 902 C 737.189 868.325, 722.046 840.696, 688.033 775.500 C 677.990 756.250, 669.415 740.114, 668.979 739.642 C 668.542 739.171, 669.288 742.771, 670.637 747.642 M 438.214 756.705 C 387.974 810.787, 352.749 868.446, 323.486 944.500 C 315.897 964.224, 303.856 999.067, 304.235 1000.206 C 304.400 1000.700, 306.953 995.568, 309.908 988.802 C 318.506 969.116, 337.963 930.241, 350.601 907.500 C 370.325 872.005, 390.424 838.921, 430.406 776.136 C 440.691 759.986, 448.911 746.578, 448.674 746.341 C 448.437 746.103, 443.730 750.767, 438.214 756.705 M 463.756 756.684 C 450.959 777.399, 439.176 800.428, 415.498 851 C 389.983 905.496, 365.383 954.794, 358.237 965.750 C 357.430 966.987, 357.053 968, 357.398 968 C 358.499 968, 377.970 941.178, 391.565 920.935 C 432.046 860.657, 458.814 804.494, 467.493 761.629 C 468.926 754.553, 469.896 748.563, 469.650 748.317 C 469.404 748.070, 466.751 751.836, 463.756 756.684 M 577.858 774.550 C 577.483 803.633, 578.741 828.846, 583.023 878 C 586.877 922.249, 588.935 951.943, 590.143 980.732 C 590.817 996.810, 591.470 1009.860, 591.594 1009.732 C 592.007 1009.307, 594.953 983.735, 596.576 966.500 C 598.736 943.561, 599.625 879.221, 598.079 857.780 C 596.589 837.121, 593.803 817.292, 589.910 799.635 C 586.938 786.157, 580.769 766.469, 578.917 764.550 C 578.359 763.972, 577.945 767.883, 577.858 774.550 M 556.185 785.167 C 546.335 825.464, 542.003 862.400, 542.014 906 C 542.022 938.373, 544.712 971.787, 550.063 1006 C 552.867 1023.930, 561.156 1066.178, 561.752 1065.581 C 562.030 1065.304, 561.749 1060.897, 561.129 1055.788 C 553.991 996.968, 553.297 930.263, 558.573 810.249 C 559.449 790.311, 560.004 773.511, 559.805 772.916 C 559.607 772.321, 557.978 777.834, 556.185 785.167" stroke="none" fill="#ffffff" fill-rule="evenodd"/><path d="M 535.768 422.565 C 535.589 422.745, 531.855 423.625, 527.471 424.522 C 499.538 430.236, 474.777 444.500, 457.286 464.955 C 445.168 479.125, 438.125 491.484, 432.376 508.663 C 419.318 547.688, 426.486 590.832, 451.585 624.275 C 458.698 633.753, 470.496 645.225, 479.225 651.153 C 482.401 653.310, 485 655.466, 485 655.945 C 485 656.423, 482.701 658.882, 479.891 661.408 C 474.258 666.473, 463.673 672, 459.607 672 C 457.329 672, 457.002 671.590, 457.016 668.750 C 457.024 666.962, 457.640 662.913, 458.384 659.750 C 459.800 653.734, 459.633 653.429, 455.733 654.911 C 453.719 655.677, 452.517 658.278, 448.221 671.161 C 440.622 693.951, 432.951 719.293, 426.324 743.500 C 426.022 744.600, 431.789 739.606, 439.138 732.403 C 459.505 712.439, 472.767 702.659, 483.287 699.846 C 487.893 698.614, 488.111 698.657, 490.766 701.314 L 493.500 704.050 493.423 718.775 C 493.359 730.945, 492.870 735.649, 490.607 745.886 C 482.915 780.676, 467.400 822.411, 447.440 862 C 429.187 898.204, 410.202 928.262, 384.842 961.110 L 378.966 968.720 376.544 986.110 C 366.535 1057.972, 362.004 1124.325, 362.002 1199.103 C 361.998 1298.011, 368.518 1365.257, 397.548 1565.719 C 415.814 1691.850, 422.263 1739.432, 428.421 1793.500 C 430.363 1810.550, 432.207 1826.300, 432.520 1828.500 L 433.090 1832.500 429.744 1827 C 423.476 1816.694, 416.692 1806.975, 416.147 1807.520 C 415.848 1807.819, 414.455 1817.612, 413.052 1829.282 L 410.500 1850.500 407.142 1837 C 399.159 1804.908, 383.122 1762.184, 366.910 1729.819 C 356.551 1709.140, 336.293 1673.374, 335.428 1674.239 C 335.096 1674.571, 340.908 1733.519, 342.405 1745 C 342.733 1747.510, 341.365 1745.359, 337.571 1737.399 C 317.118 1694.487, 290.116 1655.966, 258.058 1623.968 C 203.712 1569.724, 137.898 1536.246, 56.665 1521.525 C 48.505 1520.047, 41.606 1519.061, 41.332 1519.334 C 41.059 1519.608, 84.756 1569.436, 138.437 1630.062 C 192.119 1690.689, 235.917 1740.417, 235.766 1740.568 C 235.615 1740.719, 231.849 1739.787, 227.398 1738.498 C 214.389 1734.730, 204.270 1733.655, 188.084 1734.322 C 175.349 1734.846, 149.940 1738.726, 148.264 1740.403 C 148.009 1740.657, 150.208 1742.080, 153.151 1743.564 C 172.099 1753.121, 217.614 1782.652, 246 1803.805 C 270.082 1821.751, 314.550 1857.900, 326.980 1869.634 C 327.825 1870.432, 325.756 1869.972, 322.162 1868.564 C 310.839 1864.126, 299.315 1861.769, 288.535 1861.684 C 278.709 1861.608, 261.371 1863.575, 260.600 1864.854 C 260.386 1865.209, 270.800 1873.150, 283.742 1882.500 C 323.650 1911.331, 347.065 1930.909, 369.542 1954.239 C 397.204 1982.952, 417.529 2011.842, 435.834 2048.466 L 444.314 2065.433 443.636 2102.966 C 442.368 2173.202, 437.721 2279.407, 432.544 2356.500 C 431.805 2367.500, 431.268 2376.546, 431.351 2376.602 C 436.067 2379.818, 471.386 2399.947, 471.723 2399.610 C 471.992 2399.341, 472.656 2372.881, 473.198 2340.810 C 474.667 2253.901, 473.123 2103.907, 469.918 2022 C 469.326 2006.875, 468.700 1982.575, 468.528 1968 C 468.334 1951.639, 467.608 1936.717, 466.629 1929 C 465.758 1922.125, 464.343 1905.250, 463.486 1891.500 C 459.728 1831.202, 451.167 1748.920, 445.074 1714.532 C 444.298 1710.151, 444.580 1708.497, 447.466 1700.532 C 468.382 1642.810, 497.526 1597.385, 542.462 1552.468 C 556.493 1538.442, 577.850 1518.902, 598.714 1501 C 605.641 1495.057, 609.358 1491.225, 608.643 1490.765 C 608.014 1490.361, 600.975 1490.030, 593 1490.030 C 574.097 1490.029, 564.347 1492.253, 548.767 1500.118 L 542.539 1503.262 551.658 1493.381 C 562.535 1481.595, 591.784 1452.841, 608.507 1437.493 C 639.670 1408.894, 674.382 1380.949, 701.433 1362.683 L 710.500 1356.561 705.500 1355.652 C 702.750 1355.151, 690.150 1354.704, 677.500 1354.658 C 655.393 1354.577, 654.119 1354.680, 644.691 1357.299 C 639.297 1358.798, 632.160 1361.170, 628.833 1362.570 C 625.506 1363.971, 622.656 1364.978, 622.501 1364.808 C 622.346 1364.639, 661.320 1311.196, 709.110 1246.047 C 756.899 1180.898, 796 1127.271, 796 1126.876 C 796 1125.055, 757.437 1136.737, 737 1144.750 C 638.748 1183.269, 564.947 1258.736, 524.543 1362 C 521.423 1369.975, 518.450 1377.400, 517.937 1378.500 C 517.345 1379.768, 517.104 1367.229, 517.278 1344.250 C 517.429 1324.313, 517.264 1308, 516.910 1308 C 516.556 1308, 515.344 1310.138, 514.216 1312.750 C 513.089 1315.362, 509.166 1324, 505.500 1331.945 C 483.793 1378.980, 469.482 1424.677, 461.483 1472.500 C 460.012 1481.300, 458.703 1488.610, 458.576 1488.745 C 458.448 1488.879, 456.367 1479.767, 453.950 1468.495 C 451.534 1457.223, 449.231 1448, 448.833 1448 C 447.679 1448, 437.542 1467.485, 432.111 1480.143 C 429.376 1486.517, 425.195 1497.864, 422.819 1505.358 C 418.838 1517.917, 417 1521.671, 417 1517.246 C 417 1516.281, 415.212 1499.518, 413.026 1479.996 C 406.795 1424.344, 403.046 1380.112, 399.801 1324 C 398.146 1295.370, 398.147 1202.106, 399.803 1178 C 402.562 1137.836, 405.485 1111.832, 411.607 1073 C 430.969 950.187, 469.873 822.863, 523.386 707.170 L 530.939 690.839 529.484 684.670 C 528.684 681.276, 528.023 677.046, 528.015 675.269 L 528 672.038 532.750 672.769 C 542.411 674.256, 569.013 673.561, 577.500 671.601 C 595.191 667.516, 608.085 662.025, 622.741 652.334 C 631.954 646.242, 646.546 632.418, 652.763 623.890 C 657.051 618.009, 667 601.161, 667 599.781 C 667 599.339, 667.847 597.071, 668.882 594.739 C 672.088 587.516, 672.926 584.824, 675.183 574.500 C 678.133 561.005, 678.360 536.525, 675.651 524 C 674.640 519.325, 673.659 514.728, 673.471 513.784 C 672.709 509.970, 665.460 493.055, 661.710 486.340 C 653.862 472.288, 640.513 456.908, 628.242 447.782 C 625.084 445.433, 622.275 443.284, 622 443.006 C 621.028 442.022, 611.415 436.854, 605 433.865 C 587.747 425.828, 573.753 422.805, 552.297 422.483 C 543.385 422.349, 535.947 422.386, 535.768 422.565 M 484.828 660.750 C 483.076 665.697, 483.010 686.410, 484.740 688.140 C 486.304 689.704, 490.512 687.815, 497 682.638 L 501.500 679.047 503.019 686.773 C 505.469 699.235, 506.412 699.594, 514.750 691.237 C 520.664 685.310, 527.883 673.392, 526.358 672.074 C 525.886 671.666, 521.675 670.337, 517 669.121 C 512.325 667.905, 503.830 664.681, 498.121 661.955 C 492.413 659.230, 487.386 657, 486.949 657 C 486.512 657, 485.558 658.688, 484.828 660.750" stroke="none" fill="#97971d" fill-rule="evenodd"/><path d="M 527.563 3.364 C 515.534 16.119, 501.217 62.804, 494.093 112.500 C 483.853 183.939, 487.121 263.415, 502.976 328.500 C 513.466 371.559, 526.496 396.803, 536.308 393.073 C 544.135 390.097, 555.079 367.382, 562.977 337.719 C 580.569 271.647, 584.797 185.877, 574.058 112.919 C 566.627 62.430, 552.809 17.756, 540.362 3.979 C 535.667 -1.218, 532.049 -1.392, 527.563 3.364 M 532.239 2.250 C 527.882 7.667, 520.100 27.663, 514.624 47.515 C 498.109 107.389, 493.047 184.257, 501.016 254.193 C 506.510 302.418, 517.920 347.650, 529.630 367.632 C 533.668 374.522, 534.221 374.589, 537.835 368.624 C 551.125 346.696, 562.813 298.346, 568.685 241 C 571.070 217.707, 571.060 157.118, 568.666 134 C 562.722 76.574, 549.960 25.604, 535.931 3.250 C 534.315 0.675, 533.651 0.495, 532.239 2.250 M 544.471 43 C 544.738 46.025, 545.629 55.700, 546.450 64.500 C 552.009 124.099, 552.299 188.967, 547.473 294 C 545.551 335.846, 545.545 335.686, 548.624 324.500 C 552.420 310.708, 557.733 283.229, 559.951 265.919 C 563.310 239.698, 564.306 218.732, 563.678 187.500 C 562.791 143.402, 558.870 109.902, 548.424 57.158 C 544.574 37.721, 543.739 34.731, 544.471 43 M 804 64.865 C 771.998 77.461, 709.565 149.502, 671.218 218.083 C 636.676 279.857, 611.933 350.169, 611.598 387.500 C 611.514 396.952, 611.792 398.992, 613.575 402 C 615.470 405.196, 616.043 405.495, 620.172 405.447 C 640.118 405.212, 691.566 353.714, 731.757 293.753 C 755.363 258.536, 772.827 226.134, 788.436 188.595 C 812.871 129.828, 824.168 70.512, 812.150 64.080 C 809.598 62.715, 809.418 62.732, 804 64.865 M 807.126 67.264 C 795.072 73.425, 763.826 102.922, 743.845 127 C 697.567 182.770, 660.123 250.237, 638.674 316.500 C 629.222 345.702, 623.236 376.836, 625.410 385.496 C 626.216 388.707, 627.980 388.328, 636 383.217 C 664.946 364.770, 709.645 313.028, 742.455 259.985 C 774.896 207.540, 801.213 143.308, 810.457 94.013 C 812.403 83.634, 813.653 64.995, 812.402 65.014 C 811.906 65.022, 809.532 66.034, 807.126 67.264 M 258.405 85.102 C 255.443 88.371, 255.226 105.212, 257.950 120.565 C 269.328 184.709, 308.619 269.644, 357.166 335.040 C 388.257 376.920, 422.167 410.883, 443.594 421.601 C 456.201 427.908, 460.769 425.332, 461.693 411.398 C 463.815 379.388, 440.117 307.309, 407.874 247.707 C 378.626 193.640, 340.292 142.419, 305 110.245 C 280.236 87.670, 264.012 78.915, 258.405 85.102 M 260 91.401 C 260 95.471, 260.878 103.908, 261.951 110.151 C 271.088 163.287, 302.680 236.860, 341.540 295.500 C 367.086 334.049, 398.235 370.617, 423.624 391.864 C 432.607 399.382, 444.235 407, 446.727 407 C 448.337 407, 448.440 396.379, 446.937 385.322 C 445.505 374.785, 440.003 352.075, 435.473 338 C 414.044 271.420, 378.232 205.848, 333.086 150.528 C 319.854 134.314, 294.433 108.164, 282.526 98.517 C 274.226 91.793, 262.547 84.009, 260.750 84.003 C 260.337 84.001, 260 87.330, 260 91.401 M 514.149 95.837 C 514.067 96.572, 513.326 102.647, 512.502 109.337 C 507.678 148.505, 505.531 212.609, 507.919 246.168 C 510.564 283.339, 517.682 319.812, 525.784 337.708 L 527.500 341.500 528.032 330.500 C 529.085 308.714, 527.262 275.699, 521.021 203.500 C 519 180.124, 516.467 140.862, 515.117 112 C 514.667 102.375, 514.232 95.102, 514.149 95.837 M 794.500 119.682 C 770.575 173.876, 739.677 228.232, 675.594 328.864 C 665.309 345.014, 657.088 358.421, 657.324 358.658 C 657.843 359.176, 677.598 337.859, 688.120 325.426 C 726.105 280.545, 757.756 225.014, 783.272 158.483 C 791.207 137.793, 802.159 105.976, 801.758 104.775 C 801.598 104.294, 798.332 111.002, 794.500 119.682 M 294.668 121 C 332.813 172.680, 365.350 227.885, 421.973 337 C 429.822 352.125, 436.626 364.915, 437.094 365.421 C 438.429 366.870, 434.449 353.223, 427.462 332.396 C 403.950 262.308, 363.716 196.401, 301.456 125.987 C 288.056 110.832, 286.105 109.399, 294.668 121 M 737.870 150.626 C 695.392 207.912, 662.185 267.443, 646.459 314.504 C 641.610 329.015, 635.244 355.577, 636.350 356.683 C 636.842 357.176, 645.125 344.031, 652.219 331.500 C 659.225 319.123, 674.294 288.618, 690.502 254 C 716.017 199.504, 740.617 150.206, 747.763 139.250 C 748.570 138.012, 748.947 137, 748.602 137 C 748.257 137, 743.427 143.132, 737.870 150.626 M 291 176.217 C 291 179.181, 320.187 240.768, 330.492 259.551 C 352.764 300.142, 377.965 336.328, 399.979 359.326 C 411.360 371.215, 423.872 382.461, 424.747 381.586 C 425.715 380.618, 409.141 352.013, 396.585 332.980 C 389.865 322.795, 375.447 301.659, 364.545 286.013 C 335.483 244.305, 317.780 217.970, 304.044 196.010 C 291.755 176.363, 291 175.217, 291 176.217 M 995.500 255.624 C 939.752 263.657, 868.837 292.338, 805.705 332.384 C 745.888 370.327, 690.312 422.212, 681.617 448.232 C 678.416 457.812, 682.715 461, 698.837 461 C 741.573 461, 825.746 428.939, 892.500 387.235 C 952.777 349.578, 1011.001 295.656, 1021.470 267.793 C 1023.622 262.067, 1022.951 258.776, 1019.274 257.012 C 1016.517 255.690, 1001.236 254.797, 995.500 255.624 M 1000.761 260.534 C 980.125 263.347, 945.719 273.317, 917 284.806 C 846.442 313.031, 779.718 356.088, 730.896 404.900 C 714.295 421.497, 705.502 432.096, 700.534 441.499 L 697.893 446.498 701.074 447.149 C 708.919 448.753, 733.243 444.900, 755.639 438.504 C 824.969 418.706, 900.493 378.090, 959.500 328.871 C 990.087 303.358, 1025.184 263.264, 1019.874 259.901 C 1018.048 258.744, 1012.555 258.926, 1000.761 260.534 M 983 295.112 C 967.073 307.182, 929.180 332.197, 904 347.264 C 868.696 368.389, 834.661 387.034, 772.203 419.467 C 754.439 428.691, 740.078 436.411, 740.289 436.623 C 740.885 437.218, 766.075 429.654, 780 424.699 C 847.707 400.607, 910.279 361.826, 978.908 301.420 C 990.062 291.602, 995.035 286.836, 993.872 287.077 C 993.668 287.120, 988.775 290.735, 983 295.112 M 72.110 289.026 C 63.128 290.903, 62.031 294.836, 67.481 305.616 C 81.843 334.020, 136.122 383.146, 191.785 418.117 C 212.029 430.837, 223.302 437.181, 245 448.067 C 304.995 478.166, 370.259 497.637, 397.470 493.557 C 404.167 492.552, 407.444 489.179, 406.517 484.241 C 403.247 466.808, 369.282 429.754, 326 396.400 C 275.164 357.225, 215.945 325.139, 157 304.831 C 123.492 293.287, 85.538 286.221, 72.110 289.026 M 923 292.927 C 856.841 321.113, 799.845 353.968, 760.198 386.775 C 750.078 395.150, 726.012 419.241, 723.986 423.025 C 723.036 424.802, 723.857 424.593, 730 421.500 C 748.724 412.071, 769.922 398.315, 831.500 355.636 C 872.450 327.254, 892.143 314.148, 915.750 299.569 C 923.587 294.728, 930 290.595, 930 290.384 C 930 289.905, 930.643 289.671, 923 292.927 M 67.461 297.750 C 72.644 307.269, 80.761 316.880, 98.940 335.020 C 137.477 373.475, 183.275 406.121, 237 433.433 C 290.406 460.582, 350.108 480, 380.175 480 C 385.029 480, 389 479.760, 389 479.467 C 389 477.529, 383.082 468.005, 376.885 459.972 C 349.267 424.169, 289.015 377.289, 229.391 345.214 C 174.337 315.598, 107.002 293, 73.807 293 L 64.875 293 67.461 297.750 M 114 308.100 C 129.962 315.075, 167.467 333.489, 185.473 343.190 C 223.156 363.493, 256.392 383.474, 326.500 427.974 C 343.550 438.796, 358.175 447.985, 359 448.395 C 361.552 449.661, 342.146 431.259, 329.418 420.342 C 281.028 378.839, 223.714 346.261, 151.939 319.461 C 136.011 313.514, 105.034 302.989, 103.600 303.037 C 102.995 303.057, 107.675 305.336, 114 308.100 M 138 357.381 C 138 358.475, 167.190 379.358, 188.500 393.509 C 234.385 423.979, 271.813 443.686, 309.500 457.217 C 321.904 461.671, 343.724 467.452, 352 468.477 L 357.500 469.158 352.366 465.631 C 336.180 454.509, 310.279 441.086, 255.500 415.429 C 217.841 397.791, 168.431 373.415, 149.250 363.011 C 143.063 359.655, 138 357.121, 138 357.381 M 627.757 447.400 C 637.712 454.729, 647.458 465.144, 658.294 480.035 C 660.018 482.405, 660.018 482.371, 658.294 479.130 C 654.904 472.759, 640.436 456.595, 632.043 449.802 C 627.422 446.061, 623.222 443, 622.710 443 C 622.199 443, 624.470 444.980, 627.757 447.400 M 463.222 457.750 C 455.062 465.933, 445.884 477, 447.256 477 C 447.466 477, 450.504 473.360, 454.008 468.912 C 457.512 464.463, 463.556 457.943, 467.439 454.423 C 471.323 450.902, 474.150 448.017, 473.722 448.011 C 473.294 448.005, 468.569 452.387, 463.222 457.750 M 871.500 488.661 C 869.300 488.839, 861.650 489.455, 854.500 490.028 C 829.325 492.047, 794.254 497.807, 772 503.578 C 736.843 512.695, 712 525.084, 712 533.500 C 712 546.473, 762.301 564.645, 822.500 573.418 C 861.865 579.156, 921.264 580.964, 957.669 577.533 C 1012.411 572.373, 1060.952 561.336, 1088.810 547.713 C 1098.323 543.060, 1106 536.566, 1106 533.170 C 1106 524.600, 1074.772 510.525, 1036 501.620 C 993.375 491.830, 955.847 487.935, 906.500 488.182 C 889.450 488.267, 873.700 488.482, 871.500 488.661 M 875.500 498.095 C 822.804 501.988, 768.399 513.714, 742.444 526.774 C 732.074 531.991, 731.085 533.135, 734.570 535.876 C 743.194 542.660, 774.007 553.157, 802.500 559.016 C 839.474 566.621, 875.432 570.062, 917.957 570.068 C 964.206 570.074, 1004.481 565.706, 1044 556.400 C 1066.253 551.160, 1090.479 542.594, 1099.971 536.609 L 1105.381 533.198 1100.492 530.097 C 1094.960 526.589, 1079.652 520.428, 1067 516.618 C 1037.302 507.675, 996.781 500.715, 958.813 498.036 C 942.016 496.851, 891.854 496.886, 875.500 498.095 M 868 506.690 C 834.422 508.261, 799.921 514.193, 774.515 522.765 C 763.577 526.455, 763.547 526.474, 767.515 527.178 C 779.473 529.299, 812.994 527.874, 878 522.479 C 944.046 516.998, 959.013 515.990, 984.289 515.316 C 997.374 514.967, 1008.264 514.382, 1008.491 514.015 C 1009.252 512.783, 967.820 508.674, 938 507.025 C 921.222 506.096, 884.438 505.920, 868 506.690 M 180 525.661 C 117.964 527.511, 51.771 540.356, 17.062 557.279 C 7.822 561.784, -0 568.433, 0 571.780 C 0 574.787, 5.975 580.215, 13.806 584.323 C 43.311 599.799, 99.927 612.155, 159.368 616.090 C 179.396 617.416, 234.821 616.788, 252 615.040 C 294.546 610.712, 331.356 603.403, 358.862 593.821 C 379.854 586.509, 394 577.577, 394 571.635 C 394 556.200, 330.584 535.984, 258.777 528.528 C 243.778 526.971, 202.563 524.883, 193.500 525.221 C 190.750 525.323, 184.675 525.521, 180 525.661 M 163.500 535.039 C 114.150 537.097, 66.381 545.285, 29.648 557.981 C 18.330 561.893, 6.717 567.171, 2.566 570.289 C 0.721 571.675, 0.837 571.872, 5.066 574.551 C 23.761 586.391, 75.760 599.571, 125 604.950 C 153.461 608.059, 198.413 608.953, 227 606.979 C 283.614 603.069, 336.667 591.768, 364.714 577.644 C 373.366 573.287, 375.048 571.505, 372.398 569.502 C 360.711 560.667, 322.120 548.697, 285.500 542.548 C 247.356 536.143, 202.793 533.400, 163.500 535.039 M 176.500 541.674 C 148.005 543.081, 119.701 546.173, 90.057 551.118 C 68.807 554.662, 38.965 560.686, 38.094 561.606 C 37.767 561.951, 38.850 561.971, 40.500 561.649 C 44.659 560.839, 71.563 558.256, 89 556.993 C 119.422 554.790, 169.838 553.953, 209.986 554.986 C 247.847 555.959, 312.937 558.421, 327.368 559.425 C 331.146 559.688, 333.999 559.666, 333.709 559.375 C 332.349 558.015, 302.610 551.267, 284 548.096 C 251.550 542.566, 209.418 540.049, 176.500 541.674 M 678.336 548 C 678.336 552.125, 678.513 553.813, 678.728 551.750 C 678.944 549.688, 678.944 546.313, 678.728 544.250 C 678.513 542.188, 678.336 543.875, 678.336 548 M 1058 544.103 C 1046.754 545.573, 1018.241 547.935, 998.500 549.032 C 974.334 550.375, 895.424 550.376, 861.500 549.034 C 803.954 546.757, 786.187 545.987, 779.522 545.477 C 754.238 543.544, 813.970 556.601, 848.131 560.474 C 908.341 567.300, 974.507 563.020, 1050.383 547.392 C 1071.339 543.076, 1073.717 542.049, 1058 544.103 M 425.336 551 C 425.336 555.125, 425.513 556.813, 425.728 554.750 C 425.944 552.688, 425.944 549.313, 425.728 547.250 C 425.513 545.188, 425.336 546.875, 425.336 551 M 282.500 578.132 C 275.350 578.596, 250.600 580.548, 227.500 582.470 C 160.924 588.008, 146.093 589, 119.663 589.682 C 106.002 590.034, 95.427 590.640, 96.163 591.028 C 97.761 591.871, 120.099 594.349, 147 596.668 C 174.611 599.049, 237.283 599.045, 259.500 596.662 C 289.669 593.425, 309.823 589.428, 329.973 582.684 C 340.756 579.076, 342.043 578.424, 339.473 577.873 C 335.226 576.964, 297.875 577.133, 282.500 578.132 M 436.017 599.279 C 435.981 600.962, 442.239 612.273, 447.397 619.849 C 450.387 624.240, 452.534 628.133, 452.167 628.500 C 451.800 628.867, 451.950 629.026, 452.500 628.855 C 453.050 628.683, 456.200 631.395, 459.500 634.882 C 462.800 638.368, 467.750 643.083, 470.500 645.360 C 473.250 647.637, 470.729 644.775, 464.898 639 C 453.323 627.536, 447.509 619.876, 440.564 606.940 C 438.072 602.298, 436.026 598.850, 436.017 599.279 M 704.242 612.494 C 697.050 615.620, 698.179 623.175, 708.032 637.858 C 730.220 670.924, 786.225 717.749, 844.500 751.955 C 875.569 770.192, 920.008 790.466, 952 800.999 C 986.215 812.263, 1018.234 818.294, 1032.029 816.073 C 1042.747 814.347, 1044.332 810.563, 1038.870 799.742 C 1023.301 768.900, 963.147 715.791, 903 679.785 C 846.795 646.138, 781.990 620.100, 735.500 612.483 C 724.017 610.601, 708.585 610.607, 704.242 612.494 M 652.407 624.250 C 648.443 629.779, 637.582 641.005, 630 647.409 C 627.293 649.696, 626.804 650.338, 628.772 649.021 C 634.568 645.144, 648.374 631.394, 652.784 625.108 C 655.141 621.748, 656.867 619, 656.620 619 C 656.373 619, 654.477 621.362, 652.407 624.250 M 717.009 625.750 C 717.028 627.246, 723.036 636.942, 728.048 643.564 C 742.631 662.831, 770.307 688.606, 801.378 711.857 C 855.622 752.450, 922.386 786.117, 982.114 802.998 C 1001.729 808.541, 1015.603 811.107, 1029.390 811.740 L 1041.281 812.286 1038.617 807.393 C 1027.597 787.152, 993.352 753.474, 953.500 723.687 C 890.334 676.472, 805.460 637.183, 743.619 626.530 C 734.418 624.945, 716.993 624.434, 717.009 625.750 M 753.720 639.497 C 770.397 650.728, 799.461 665.630, 860 693.990 C 889.059 707.603, 946.914 736.011, 949.500 737.936 C 951.502 739.426, 968 748.092, 968 747.653 C 968 746.359, 928.518 718.072, 910.500 706.457 C 855.343 670.903, 801.489 645.887, 763.308 638.083 C 748.588 635.075, 747.410 635.248, 753.720 639.497 M 385 645.987 C 329.443 656.507, 252.271 690.545, 195 729.792 C 139.580 767.771, 93.118 813.070, 84.449 837.577 C 82.394 843.386, 82.780 845.155, 86.655 847.692 C 90.315 850.088, 108.754 850.045, 121.500 847.611 C 190.124 834.506, 274.304 794.907, 340.371 744.652 C 384.322 711.220, 417.938 676.055, 424.383 656.768 C 426.406 650.713, 425.294 647.438, 420.538 645.452 C 415.702 643.431, 397.014 643.712, 385 645.987 M 621.903 653.004 C 620.474 654.071, 615.524 656.974, 610.903 659.455 C 606.281 661.937, 602.828 663.974, 603.228 663.983 C 604.066 664.003, 615.249 658.756, 616 657.991 C 616.275 657.710, 618.413 656.242, 620.750 654.726 C 623.087 653.211, 625 651.753, 625 651.486 C 625 650.759, 624.730 650.891, 621.903 653.004 M 754.500 664.538 C 804.779 712.712, 862.877 749.206, 935.500 778.231 C 959.455 787.805, 1001.703 802.630, 1002.568 801.765 C 1002.728 801.606, 996.253 798.577, 988.179 795.034 C 980.106 791.492, 962.475 783.080, 949 776.342 C 901.068 752.374, 859.958 728.205, 775.078 674.093 C 761.096 665.179, 748.721 657.443, 747.578 656.901 C 746.435 656.359, 749.550 659.796, 754.500 664.538 M 393 657.639 C 391.625 657.841, 387.125 658.484, 383 659.068 C 344.227 664.559, 279.863 689.538, 228.537 719.013 C 186.447 743.185, 150.685 770.231, 118.889 801.938 C 96.584 824.182, 82.554 842.722, 86.160 845.187 C 89.158 847.236, 112.176 843.974, 133.988 838.408 C 204.447 820.431, 287.610 776.324, 349.500 724.108 C 372.835 704.421, 398.875 676.300, 405.289 663.863 L 408.054 658.500 405.777 657.850 C 403.324 657.149, 397.043 657.046, 393 657.639 M 493.877 661 C 498.427 663.200, 502.453 664.978, 502.824 664.951 C 504.035 664.862, 488.542 657.100, 487.053 657.049 C 486.257 657.022, 489.328 658.800, 493.877 661 M 357.500 670.104 C 289.281 689.227, 223.550 724.582, 158 777.408 C 135.383 795.636, 103.513 824.064, 116 814.873 C 174.889 771.527, 227.896 740.145, 340.500 681.960 C 369.383 667.036, 370.013 666.597, 357.500 670.104 M 546.750 674.737 C 549.638 674.939, 554.362 674.939, 557.250 674.737 C 560.138 674.535, 557.775 674.370, 552 674.370 C 546.225 674.370, 543.862 674.535, 546.750 674.737 M 371.071 686.118 C 354.453 694.973, 334.547 707.680, 302.657 729.793 C 226.904 782.322, 219.419 787.354, 190.555 805.162 C 181.785 810.573, 174.903 815, 175.262 815 C 176.872 815, 208.419 800.850, 227.500 791.570 C 272.151 769.853, 309.795 746.894, 340.297 722.775 C 354.002 711.938, 385.887 679.873, 382.818 680.015 C 382.643 680.023, 377.357 682.769, 371.071 686.118 M 647.138 682.552 C 639.463 692.309, 647.077 736.311, 664.519 783 C 691.108 854.170, 733.218 923.257, 781.793 975.401 C 806.582 1002.011, 832.587 1022, 842.418 1022 C 848.120 1022, 849.448 1019.370, 849.844 1007.299 C 851.102 968.890, 822.762 889.104, 784.913 824.500 C 747.094 759.946, 693.267 698.183, 661.500 682.890 C 653.903 679.233, 649.824 679.137, 647.138 682.552 M 658 705.007 C 658 749.532, 694.138 840.314, 738.804 907.992 C 770.671 956.278, 815.858 1005.329, 840.623 1018.519 L 845.500 1021.116 845.801 1014.340 C 846.180 1005.788, 843.779 990.235, 839.497 973.500 C 820.491 899.238, 776.734 817.063, 722.159 753.146 C 709.852 738.733, 686.017 715.359, 676 707.881 C 668.654 702.397, 661.107 698, 659.040 698 C 658.419 698, 658 700.823, 658 705.007 M 480 700.856 C 469.330 705.034, 456.793 714.916, 435.644 735.818 C 381.099 789.727, 331.526 870.971, 305.132 949.709 C 289.221 997.174, 284.416 1035.871, 293.808 1040.897 C 304.677 1046.714, 350.005 1007.351, 383.509 963 C 387.872 957.225, 393.643 949.575, 396.335 946 C 404.166 935.598, 421.078 909.680, 429.940 894.500 C 457.598 847.122, 480.780 790.336, 490.607 745.886 C 492.867 735.662, 493.359 730.940, 493.423 718.833 C 493.498 704.636, 493.422 704.084, 491.076 701.583 C 488.253 698.575, 486.173 698.438, 480 700.856 M 569.500 711.954 C 559.309 716.169, 545.299 751.372, 537.015 793.583 C 523.362 863.148, 522.369 935.253, 534.103 1005 C 543.270 1059.484, 560.728 1105, 572.460 1105 C 580.994 1105, 592.951 1079.359, 602.491 1040.604 C 622.074 961.047, 622.957 866.577, 604.885 784.500 C 596.845 747.987, 584.773 718.492, 575.571 712.880 C 572.144 710.790, 572.268 710.809, 569.500 711.954 M 474.485 719.119 C 446.502 733.995, 398.578 788.379, 363.545 845.015 C 331.135 897.408, 304.783 961.704, 295.564 1010.878 C 293.542 1021.664, 292.416 1038.521, 293.666 1039.294 C 298.499 1042.281, 336.005 1009.095, 360.113 980.500 C 406.611 925.349, 445.672 855.397, 467.326 788.500 C 476.750 759.384, 482.764 728.164, 480.605 719.561 C 479.826 716.460, 479.528 716.438, 474.485 719.119 M 681 723.613 C 681 724.763, 689.946 740.846, 697.345 753 C 706.701 768.367, 719.601 787.590, 743.984 822.500 C 768.834 858.077, 794.929 897.136, 806.018 915.350 C 810.590 922.859, 814.482 928.852, 814.667 928.667 C 814.852 928.482, 812.701 922.968, 809.887 916.415 C 779.729 846.187, 741.506 782.994, 707.323 746.851 C 694.090 732.860, 681 721.304, 681 723.613 M 569.349 734.257 C 558.532 750.568, 547.345 789.624, 541.066 833 C 529.091 915.722, 535.751 1009.693, 558.216 1075 C 562.713 1088.072, 570.689 1104.259, 572.373 1103.731 C 573.962 1103.232, 579.385 1092.953, 583.046 1083.500 C 593.979 1055.273, 602.439 1013.230, 607.193 963.500 C 609.071 943.848, 608.745 887.585, 606.624 865.500 C 602.018 817.543, 593.354 776.587, 581.948 748.856 C 578.954 741.576, 573.079 730.994, 572.039 731.007 C 571.742 731.011, 570.532 732.473, 569.349 734.257 M 670.637 747.642 C 684.347 797.169, 709.035 849.833, 740.653 897 C 757.205 921.692, 778.418 949.036, 801.655 975.635 C 817.980 994.322, 819.952 995.794, 809.512 981.500 C 795.396 962.172, 772.524 927.303, 757.364 902 C 737.189 868.325, 722.046 840.696, 688.033 775.500 C 677.990 756.250, 669.415 740.114, 668.979 739.642 C 668.542 739.171, 669.288 742.771, 670.637 747.642 M 438.214 756.705 C 387.974 810.787, 352.749 868.446, 323.486 944.500 C 315.897 964.224, 303.856 999.067, 304.235 1000.206 C 304.400 1000.700, 306.953 995.568, 309.908 988.802 C 318.506 969.116, 337.963 930.241, 350.601 907.500 C 370.325 872.005, 390.424 838.921, 430.406 776.136 C 440.691 759.986, 448.911 746.578, 448.674 746.341 C 448.437 746.103, 443.730 750.767, 438.214 756.705 M 463.756 756.684 C 450.959 777.399, 439.176 800.428, 415.498 851 C 389.983 905.496, 365.383 954.794, 358.237 965.750 C 357.430 966.987, 357.053 968, 357.398 968 C 358.499 968, 377.970 941.178, 391.565 920.935 C 432.046 860.657, 458.814 804.494, 467.493 761.629 C 468.926 754.553, 469.896 748.563, 469.650 748.317 C 469.404 748.070, 466.751 751.836, 463.756 756.684 M 577.858 774.550 C 577.483 803.633, 578.741 828.846, 583.023 878 C 586.877 922.249, 588.935 951.943, 590.143 980.732 C 590.817 996.810, 591.470 1009.860, 591.594 1009.732 C 592.007 1009.307, 594.953 983.735, 596.576 966.500 C 598.736 943.561, 599.625 879.221, 598.079 857.780 C 596.589 837.121, 593.803 817.292, 589.910 799.635 C 586.938 786.157, 580.769 766.469, 578.917 764.550 C 578.359 763.972, 577.945 767.883, 577.858 774.550 M 556.185 785.167 C 546.335 825.464, 542.003 862.400, 542.014 906 C 542.022 938.373, 544.712 971.787, 550.063 1006 C 552.867 1023.930, 561.156 1066.178, 561.752 1065.581 C 562.030 1065.304, 561.749 1060.897, 561.129 1055.788 C 553.991 996.968, 553.297 930.263, 558.573 810.249 C 559.449 790.311, 560.004 773.511, 559.805 772.916 C 559.607 772.321, 557.978 777.834, 556.185 785.167" stroke="none" fill="#f1f1f1" fill-rule="evenodd"/></svg>